<svg width="240" height="70" viewBox="0 0 240 70" fill="none" xmlns="http://www.w3.org/2000/svg">
<g id="Frame">
<path id="Vector" d="M70.2677 46.1937H86.232V41.3352H75.9418V23.0347H70.2677V46.1937Z" fill="#9F9FAC"/>
<path id="Vector_2" d="M95.6909 42.954C93.4148 42.954 92.2287 40.9458 92.2287 37.9335C92.2287 34.9212 93.4148 32.8806 95.6909 32.8806C97.9669 32.8806 99.1851 34.9212 99.1851 37.9335C99.1851 40.9458 97.9669 42.954 95.6909 42.954ZM95.7229 46.7113C101.012 46.7113 104.474 42.9216 104.474 37.9335C104.474 32.9454 101.012 29.1558 95.7229 29.1558C90.4656 29.1558 86.9393 32.9454 86.9393 37.9335C86.9393 42.9216 90.4656 46.7113 95.7229 46.7113Z" fill="#9F9FAC"/>
<path id="Vector_3" d="M113.63 51.9258C116.066 51.9258 118.214 51.3751 119.656 50.0795C120.971 48.8811 121.836 47.0672 121.836 44.5732V29.6089H116.835V31.3904H116.771C115.81 29.9976 114.335 29.123 112.155 29.123C108.084 29.123 105.263 32.5564 105.263 37.415C105.263 42.5002 108.693 45.2858 112.38 45.2858C114.367 45.2858 115.617 44.476 116.579 43.3748H116.707V45.0267C116.707 47.0349 115.778 48.2009 113.566 48.2009C111.835 48.2009 110.969 47.4559 110.681 46.5814H105.616C106.128 50.0471 109.11 51.9258 113.63 51.9258ZM113.598 41.3666C111.642 41.3666 110.36 39.747 110.36 37.253C110.36 34.7266 111.642 33.107 113.598 33.107C115.778 33.107 116.932 34.9857 116.932 37.2206C116.932 39.5527 115.874 41.3666 113.598 41.3666Z" fill="#9F9FAC"/>
<path id="Vector_4" d="M132.12 42.954C129.844 42.954 128.658 40.9458 128.658 37.9335C128.658 34.9212 129.844 32.8806 132.12 32.8806C134.396 32.8806 135.615 34.9212 135.615 37.9335C135.615 40.9458 134.396 42.954 132.12 42.954ZM132.152 46.7113C137.442 46.7113 140.904 42.9216 140.904 37.9335C140.904 32.9454 137.442 29.1558 132.152 29.1558C126.895 29.1558 123.369 32.9454 123.369 37.9335C123.369 42.9216 126.895 46.7113 132.152 46.7113Z" fill="#9F9FAC"/>
<path id="Vector_5" d="M142.43 46.1937H147.655V29.6099H142.43V46.1937ZM142.43 27.3102H147.655V23.0347H142.43V27.3102Z" fill="#9F9FAC"/>
<path id="Vector_6" d="M149.921 51.6667H155.146V44.476H155.21C156.236 45.8688 157.743 46.711 159.858 46.711C164.154 46.711 167.007 43.2776 167.007 37.9008C167.007 32.9127 164.346 29.123 159.987 29.123C157.743 29.123 156.14 30.1271 155.018 31.6171H154.922V29.6089H149.921V51.6667ZM158.512 42.6298C156.268 42.6298 154.986 40.7835 154.986 38.0951C154.986 35.4068 156.14 33.3662 158.416 33.3662C160.66 33.3662 161.718 35.2448 161.718 38.0951C161.718 40.9131 160.499 42.6298 158.512 42.6298Z" fill="#9F9FAC"/>
<path id="Vector_7" d="M175.515 46.711C179.811 46.711 182.985 44.8323 182.985 41.2046C182.985 36.9615 179.587 36.2165 176.702 35.7307C174.618 35.342 172.759 35.18 172.759 34.014C172.759 32.9775 173.752 32.4916 175.035 32.4916C176.477 32.4916 177.471 32.9451 177.663 34.435H182.472C182.215 31.1636 179.715 29.123 175.067 29.123C171.188 29.123 167.982 30.9369 167.982 34.435C167.982 38.3219 171.028 39.0992 173.881 39.5851C176.06 39.9738 178.048 40.1357 178.048 41.6257C178.048 42.6946 177.054 43.2776 175.483 43.2776C173.752 43.2776 172.662 42.4678 172.47 40.8159H167.533C167.694 44.476 170.707 46.711 175.515 46.711Z" fill="#9F9FAC"/>
<path id="Vector_8" d="M190.082 46.6785C192.358 46.6785 193.8 45.7716 194.987 44.1521H195.083V46.1927H200.084V29.6089H194.858V38.8725C194.858 40.8483 193.768 42.2087 191.973 42.2087C190.306 42.2087 189.505 41.2046 189.505 39.3907V29.6089H184.312V40.492C184.312 44.1845 186.299 46.6785 190.082 46.6785Z" fill="#9F9FAC"/>
<path id="Vector_9" d="M202.357 46.1927H207.582V36.8967C207.582 34.9209 208.544 33.5281 210.178 33.5281C211.749 33.5281 212.487 34.5646 212.487 36.3461V46.1927H217.712V36.8967C217.712 34.9209 218.641 33.5281 220.308 33.5281C221.879 33.5281 222.616 34.5646 222.616 36.3461V46.1927H227.842V35.4068C227.842 31.6819 225.982 29.123 222.264 29.123C220.148 29.123 218.385 30.03 217.103 32.0382H217.039C216.205 30.2567 214.57 29.123 212.422 29.123C210.05 29.123 208.479 30.2567 207.454 31.9734H207.357V29.6089H202.357V46.1927Z" fill="#9F9FAC"/>
<path id="Vector_10" fill-rule="evenodd" clip-rule="evenodd" d="M16.8714 12.5851C14.9605 13.9352 13.2325 15.5315 11.7324 17.3283C17.8624 16.7533 25.6502 17.6923 34.6919 22.2601C44.3472 27.1378 52.122 27.3027 57.533 26.2482C57.0419 24.7462 56.4238 23.3027 55.6917 21.9304C49.4976 22.5905 41.5569 21.7168 32.3026 17.0417C26.426 14.0728 21.2459 12.8499 16.8714 12.5851ZM52.0734 16.7268C47.1819 11.2047 40.0734 7.72949 32.1615 7.72949C29.8381 7.72949 27.5837 8.02925 25.4345 8.59253C28.3453 9.39501 31.4374 10.569 34.6919 12.2132C41.4674 15.6361 47.317 16.7382 52.0734 16.7268ZM58.6898 31.5202C52.1529 32.8245 43.1261 32.5566 32.3026 27.0886C22.1838 21.9766 14.1302 22.041 8.69848 23.2606C8.41811 23.3235 8.14435 23.3896 7.87719 23.4584C7.16605 25.0211 6.5984 26.6644 6.1911 28.3708C6.62612 28.2534 7.07564 28.1418 7.53944 28.0376C14.129 26.558 23.4395 26.6223 34.6919 32.307C44.8108 37.419 52.8644 37.3547 58.2962 36.135C58.4822 36.0933 58.6656 36.0501 58.8459 36.0056C58.8657 35.5801 58.8756 35.1518 58.8756 34.7213C58.8756 33.6383 58.8126 32.5701 58.6898 31.5202ZM57.9737 41.7018C51.5002 42.8453 42.7363 42.4065 32.3026 37.1355C22.1838 32.0235 14.1302 32.0879 8.69848 33.3075C7.49281 33.5781 6.4082 33.9078 5.45142 34.2559C5.44881 34.4107 5.44751 34.5659 5.44751 34.7213C5.44751 49.6285 17.4078 61.7132 32.1615 61.7132C44.5263 61.7132 54.929 53.2255 57.9737 41.7018Z" fill="#9F9FAC"/>
</g>
</svg>
