<svg width="240" height="70" viewBox="0 0 240 70" fill="none" xmlns="http://www.w3.org/2000/svg">
<g id="logoipsum-logo-8 (1) 1">
<path id="Vector" d="M35.4329 32.1838C34.7775 32.8432 34.2757 33.6389 33.9631 34.5142C33.6504 35.3897 33.5348 36.3233 33.6241 37.2486L33.593 37.2174C33.685 38.3066 33.538 39.4026 33.1626 40.4292C32.7872 41.4556 32.1924 42.3878 31.4196 43.1608C30.6467 43.9335 29.7145 44.5285 28.6879 44.9037C27.6615 45.2792 26.5653 45.4261 25.4763 45.3341L25.5074 45.3653C24.2047 45.244 22.8962 45.5275 21.7603 46.1771C20.6246 46.8268 19.7168 47.8108 19.1609 48.9953C18.605 50.1798 18.4277 51.5067 18.6535 52.7957C18.8795 54.0844 19.4974 55.2722 20.423 56.1969C21.3486 57.1217 22.5369 57.7385 23.8258 57.9631C25.1149 58.1879 26.4417 58.0094 27.6257 57.4525C28.8096 56.8953 29.7928 55.9868 30.4414 54.8504C31.0901 53.714 31.3724 52.4054 31.25 51.1026L31.2829 51.1338C31.1909 50.0447 31.3377 48.9486 31.7131 47.922C32.0885 46.8956 32.6835 45.9634 33.4562 45.1904C34.2292 44.4177 35.1614 43.8227 36.1878 43.4474C37.2144 43.072 38.3104 42.9251 39.3996 43.0171L39.3667 42.9859C40.4308 43.0816 41.5021 42.9071 42.4809 42.4786C43.4597 42.0501 44.3145 41.3814 44.9661 40.5347C45.6176 39.6879 46.0451 38.6902 46.2083 37.6343C46.3717 36.5783 46.2659 35.4983 45.9007 34.494C45.5355 33.4899 44.9227 32.5942 44.1192 31.8899C43.3156 31.1856 42.3473 30.6955 41.3039 30.4652C40.2605 30.2349 39.1758 30.2715 38.1504 30.5719C37.125 30.8724 36.1921 31.4268 35.438 32.1838H35.4329Z" fill="#9F9FAC"/>
<path id="Vector_2" d="M22.6774 41.2881L22.6446 41.257C23.5702 41.3502 24.505 41.2366 25.3815 40.9243C26.2578 40.612 27.0539 40.109 27.712 39.4514C28.37 38.7938 28.8739 37.998 29.1867 37.1218C29.4997 36.2457 29.614 35.3111 29.5215 34.3853L29.5543 34.4164C29.4623 33.3272 29.6093 32.2312 29.9845 31.2046C30.3599 30.1782 30.9549 29.246 31.7277 28.4731C32.5006 27.7003 33.4328 27.1053 34.4593 26.7301C35.4859 26.3546 36.5818 26.2077 37.671 26.2997L37.6382 26.2685C38.9411 26.391 40.2499 26.1084 41.3863 25.4595C42.5229 24.8106 43.4314 23.8269 43.9882 22.6427C44.545 21.4584 44.7229 20.1312 44.4978 18.8421C44.2726 17.553 43.6553 16.3648 42.7299 15.4394C41.8046 14.5141 40.6163 13.8967 39.3272 13.6715C38.0381 13.4463 36.711 13.6243 35.5267 14.1811C34.3424 14.7379 33.3588 15.6465 32.7099 16.7829C32.0609 17.9194 31.7784 19.2283 31.9008 20.5312L31.8697 20.4983C31.9618 21.5875 31.8152 22.6837 31.44 23.7103C31.0647 24.737 30.4697 25.6693 29.697 26.4423C28.924 27.2151 27.9917 27.8101 26.965 28.1853C25.9383 28.5606 24.8421 28.7072 23.7529 28.615L23.7841 28.6479C22.8585 28.5547 21.9235 28.6683 21.0471 28.9806C20.1708 29.2927 19.3747 29.7959 18.7166 30.4535C18.0585 31.1111 17.5548 31.9068 17.2418 32.783C16.929 33.6592 16.8147 34.5938 16.9072 35.5196L16.8761 35.4885C16.9677 36.5775 16.8205 37.6734 16.4451 38.6999C16.0696 39.7261 15.4747 40.6583 14.702 41.4311C13.9291 42.2039 12.997 42.7987 11.9707 43.1743C10.9443 43.5497 9.84839 43.6968 8.75934 43.6052L8.79047 43.6363C7.48758 43.5139 6.17865 43.7964 5.04222 44.4454C3.90581 45.0943 2.99722 46.0779 2.44041 47.2622C1.88359 48.4465 1.70562 49.7736 1.93081 51.0627C2.156 52.3518 2.77338 53.5401 3.69871 54.4654C4.62406 55.3908 5.81231 56.0081 7.10142 56.2333C8.39053 56.4584 9.71772 56.2805 10.902 55.7237C12.0862 55.1669 13.0699 54.2584 13.7188 53.122C14.3677 51.9854 14.6503 50.6766 14.5278 49.3737L14.5607 49.4048C14.4687 48.3156 14.6157 47.2197 14.9911 46.193C15.3663 45.1666 15.9613 44.2344 16.7341 43.4615C17.507 42.6887 18.4392 42.0937 19.4657 41.7185C20.4923 41.3431 21.5882 41.1961 22.6774 41.2881Z" fill="#9F9FAC"/>
<path id="Vector_3" d="M11.0883 37.8163C11.7437 37.1571 12.2454 36.3614 12.5578 35.4859C12.8702 34.6104 12.9854 33.6767 12.8953 32.7516L12.9281 32.7827C12.8361 31.6933 12.983 30.5969 13.3586 29.5701C13.7342 28.5433 14.3294 27.6109 15.1027 26.838C15.876 26.0651 16.8085 25.4703 17.8355 25.0951C18.8624 24.72 19.9589 24.5735 21.0483 24.666L21.0154 24.6349C22.3178 24.7569 23.6263 24.4742 24.7622 23.8253C25.8981 23.1765 26.8061 22.1931 27.3627 21.0092C27.9191 19.8253 28.0969 18.4986 27.8717 17.21C27.6466 15.9214 27.0293 14.7336 26.1044 13.8086C25.1794 12.8836 23.9915 12.2664 22.7029 12.0412C21.4143 11.816 20.0876 11.9938 18.9038 12.5503C17.7198 13.1068 16.7364 14.0149 16.0876 15.1508C15.4387 16.2867 15.156 17.595 15.2781 18.8975L15.2469 18.8664C15.3389 19.9555 15.1919 21.0515 14.8165 22.078C14.4411 23.1046 13.8463 24.0368 13.0735 24.8096C12.3006 25.5825 11.3684 26.1774 10.3419 26.5527C9.31538 26.9281 8.21933 27.0751 7.13022 26.9831L7.16134 27.0142C6.09716 26.9187 5.0261 27.0936 4.04743 27.5222C3.06875 27.9509 2.21411 28.6197 1.56272 29.4667C0.911324 30.3134 0.484254 31.3112 0.321055 32.367C0.157874 33.423 0.263855 34.503 0.629175 35.507C0.994496 36.5111 1.60737 37.4067 2.41096 38.1108C3.21456 38.8151 4.18289 39.3049 5.22623 39.5353C6.26956 39.7654 7.35415 39.7286 8.37949 39.4282C9.40482 39.1277 10.3377 38.5733 11.0917 37.8163H11.0883Z" fill="#9F9FAC"/>
<path id="Vector_4" d="M64.6511 20.5708H69.7867V45.5624H64.6511V20.5708Z" fill="#9F9FAC"/>
<path id="Vector_5" d="M72.6963 37.0043C72.6892 35.2083 73.2152 33.4505 74.2078 31.9537C75.2003 30.4569 76.6148 29.2884 78.272 28.5962C79.9292 27.9038 81.7545 27.719 83.5169 28.065C85.2793 28.411 86.8993 29.2721 88.1718 30.5396C89.4443 31.8069 90.312 33.4235 90.6651 35.1845C91.0182 36.9455 90.8406 38.7716 90.155 40.4316C89.4694 42.0915 88.3065 43.5108 86.8137 44.5092C85.3208 45.5078 83.5653 46.0409 81.7692 46.0409C80.5771 46.0545 79.3942 45.8303 78.2896 45.3814C77.185 44.9325 76.1811 44.268 75.3364 43.4267C74.4915 42.5853 73.823 41.584 73.3698 40.4813C72.9164 39.3786 72.6875 38.1965 72.6963 37.0043ZM85.7065 37.0043C85.6851 36.2301 85.4359 35.4795 84.9903 34.8461C84.5445 34.2129 83.922 33.7249 83.2006 33.4436C82.479 33.162 81.6907 33.0994 80.9339 33.2637C80.177 33.428 79.4853 33.8115 78.9453 34.3668C78.4055 34.9218 78.041 35.6239 77.898 36.385C77.7548 37.146 77.839 37.9325 78.1404 38.6459C78.4418 39.3594 78.9467 39.968 79.592 40.396C80.2375 40.824 80.9949 41.0522 81.7692 41.0522C82.2996 41.0664 82.8271 40.9704 83.3187 40.7705C83.8102 40.5707 84.2549 40.2712 84.6248 39.8909C84.9946 39.5105 85.2819 39.0576 85.4679 38.5608C85.6541 38.0641 85.7354 37.5341 85.7065 37.0043Z" fill="#9F9FAC"/>
<path id="Vector_6" d="M111.31 28.4445V44.6987C111.31 50.4499 106.825 52.8811 102.272 52.8811C100.669 53.0011 99.064 52.6772 97.6327 51.9452C96.2017 51.2131 94.9997 50.1011 94.1588 48.7311L98.5405 46.1978C98.894 46.912 99.4572 47.5011 100.155 47.8865C100.852 48.2718 101.651 48.435 102.443 48.3541C102.95 48.4243 103.466 48.3797 103.953 48.2236C104.44 48.0674 104.886 47.8037 105.257 47.4522C105.629 47.1005 105.916 46.6699 106.099 46.192C106.281 45.7142 106.354 45.2015 106.311 44.6917V43.1268C105.71 43.8626 104.945 44.4472 104.076 44.8337C103.208 45.2202 102.262 45.3978 101.312 45.3523C99.0538 45.281 96.9115 44.3338 95.339 42.7108C93.7665 41.088 92.8872 38.9168 92.8872 36.6572C92.8872 34.3975 93.7665 32.2263 95.339 30.6035C96.9115 28.9805 99.0538 28.0333 101.312 27.962C102.262 27.9166 103.208 28.0942 104.076 28.4806C104.945 28.8671 105.71 29.4517 106.311 30.1875V28.441L111.31 28.4445ZM106.313 36.6598C106.348 35.8322 106.134 35.0131 105.699 34.3081C105.264 33.6029 104.628 33.0442 103.873 32.7038C103.118 32.3631 102.278 32.2564 101.462 32.3972C100.645 32.5379 99.8898 32.9197 99.2922 33.4937C98.6948 34.0674 98.2827 34.8068 98.1089 35.6167C97.9353 36.4267 98.008 37.2702 98.3178 38.0384C98.6275 38.8067 99.1601 39.4648 99.8469 39.9279C100.534 40.391 101.344 40.6379 102.172 40.6368C102.711 40.6745 103.253 40.5988 103.761 40.4145C104.27 40.2301 104.734 39.9412 105.124 39.5667C105.514 39.1919 105.822 38.7398 106.027 38.239C106.231 37.7384 106.329 37.2005 106.313 36.6598Z" fill="#9F9FAC"/>
<path id="Vector_7" d="M114.22 37.0043C114.213 35.2083 114.738 33.4505 115.731 31.9537C116.724 30.4569 118.138 29.2884 119.795 28.5962C121.453 27.9038 123.278 27.719 125.04 28.065C126.803 28.411 128.423 29.2721 129.695 30.5396C130.968 31.8069 131.835 33.4235 132.189 35.1845C132.542 36.9455 132.364 38.7716 131.678 40.4316C130.993 42.0915 129.83 43.5108 128.337 44.5092C126.844 45.5078 125.089 46.0409 123.293 46.0409C122.101 46.0545 120.917 45.8303 119.813 45.3814C118.708 44.9325 117.705 44.268 116.86 43.4267C116.015 42.5853 115.346 41.584 114.893 40.4813C114.44 39.3786 114.211 38.1965 114.22 37.0043ZM127.23 37.0043C127.209 36.2301 126.959 35.4795 126.514 34.8461C126.068 34.2129 125.445 33.7249 124.724 33.4436C124.002 33.162 123.214 33.0994 122.457 33.2637C121.7 33.428 121.009 33.8115 120.469 34.3668C119.929 34.9218 119.564 35.6239 119.421 36.385C119.278 37.146 119.362 37.9325 119.664 38.6459C119.965 39.3594 120.47 39.968 121.115 40.396C121.761 40.824 122.518 41.0522 123.293 41.0522C123.823 41.0664 124.351 40.9704 124.842 40.7705C125.334 40.5707 125.778 40.2712 126.148 39.8909C126.518 39.5105 126.805 39.0576 126.991 38.5608C127.178 38.0641 127.259 37.5341 127.23 37.0043Z" fill="#9F9FAC"/>
<path id="Vector_8" d="M134.76 23.8573C134.76 23.2478 134.941 22.6521 135.28 22.1453C135.618 21.6386 136.099 21.2437 136.663 21.0104C137.226 20.7772 137.845 20.7162 138.443 20.8351C139.04 20.954 139.59 21.2475 140.021 21.6784C140.451 22.1093 140.745 22.6584 140.864 23.2561C140.983 23.8538 140.922 24.4734 140.689 25.0364C140.455 25.5995 140.06 26.0807 139.554 26.4194C139.047 26.7579 138.451 26.9386 137.842 26.9386C137.027 26.9305 136.248 26.6033 135.672 26.0272C135.096 25.451 134.768 24.672 134.76 23.8573ZM135.279 28.4447H140.416V45.5635H135.272L135.279 28.4447Z" fill="#9F9FAC"/>
<path id="Vector_9" d="M162.59 37.0044C162.649 38.1358 162.484 39.2677 162.105 40.3352C161.725 41.4026 161.138 42.3844 160.378 43.2242C159.618 44.0639 158.698 44.7452 157.674 45.2287C156.649 45.712 155.539 45.9881 154.408 46.0411C153.456 46.0929 152.505 45.9325 151.623 45.5712C150.741 45.2098 149.95 44.6569 149.308 43.9522V52.4096H144.173V28.4451H149.308V30.0532C149.95 29.3491 150.741 28.7964 151.623 28.4355C152.505 28.0745 153.456 27.9142 154.408 27.9661C155.539 28.0188 156.65 28.2948 157.675 28.7783C158.7 29.2617 159.619 29.943 160.379 30.7831C161.14 31.6231 161.726 32.6053 162.106 33.673C162.485 34.7406 162.65 35.8729 162.59 37.0044ZM157.454 37.0044C157.434 36.2033 157.178 35.4259 156.719 34.7693C156.259 34.1129 155.616 33.6066 154.87 33.314C154.124 33.0213 153.308 32.9551 152.524 33.1238C151.741 33.2924 151.025 33.6884 150.465 34.2621C149.905 34.8361 149.528 35.562 149.379 36.3496C149.23 37.1371 149.317 37.9508 149.628 38.6893C149.939 39.4279 150.462 40.058 151.129 40.5012C151.797 40.9442 152.581 41.1805 153.382 41.1804C153.932 41.2049 154.482 41.1128 154.994 40.9101C155.506 40.7076 155.969 40.399 156.354 40.0047C156.738 39.6103 157.035 39.1393 157.225 38.6222C157.414 38.1052 157.493 37.5538 157.454 37.0044Z" fill="#9F9FAC"/>
<path id="Vector_10" d="M178.439 40.426C178.439 44.3633 175.017 46.0406 171.32 46.0406C169.826 46.1759 168.326 45.8601 167.014 45.1337C165.702 44.4074 164.637 43.3042 163.959 41.9667L168.408 39.4335C168.588 40.0517 168.975 40.5896 169.503 40.9571C170.032 41.3247 170.671 41.4998 171.313 41.4532C172.544 41.4532 173.161 41.0762 173.161 40.3932C173.161 38.5084 164.739 39.5027 164.739 33.5803C164.739 29.847 167.889 27.9657 171.449 27.9657C172.788 27.9233 174.112 28.2408 175.287 28.8849C176.461 29.5292 177.441 30.4764 178.124 31.628L173.742 33.9901C173.55 33.5417 173.231 33.1597 172.822 32.8919C172.414 32.624 171.937 32.4822 171.449 32.484C170.559 32.484 170.011 32.8298 170.011 33.4419C170.018 35.3942 178.439 34.0921 178.439 40.426Z" fill="#9F9FAC"/>
<path id="Vector_11" d="M197.199 28.4438V45.5626H192.064V43.9527C191.471 44.6631 190.718 45.2228 189.868 45.5859C189.017 45.9491 188.094 46.1052 187.17 46.0416C183.712 46.0416 180.772 43.5775 180.772 38.952V28.4438H185.908V38.1998C185.865 38.6075 185.911 39.0198 186.044 39.4076C186.176 39.7957 186.392 40.1501 186.676 40.4463C186.959 40.7425 187.303 40.9734 187.685 41.123C188.066 41.2725 188.476 41.3372 188.885 41.3123C190.769 41.3123 192.069 40.2177 192.069 37.7865V28.449L197.199 28.4438Z" fill="#9F9FAC"/>
<path id="Vector_12" d="M226.645 35.0516V45.5615H221.509V35.496C221.509 33.7842 220.688 32.6896 219.045 32.6896C217.333 32.6896 216.374 33.8879 216.374 35.9076V45.5615H211.24V35.496C211.24 33.7842 210.418 32.6896 208.774 32.6896C207.062 32.6896 206.104 33.8879 206.104 35.9076V45.5615H200.969V28.4428H206.104V30.0163C206.637 29.3182 207.335 28.7646 208.136 28.4061C208.938 28.0475 209.817 27.8955 210.692 27.9638C211.57 27.9207 212.445 28.1063 213.232 28.5021C214.017 28.8977 214.686 29.4905 215.175 30.2221C215.744 29.4566 216.498 28.8479 217.366 28.453C218.234 28.058 219.189 27.8898 220.14 27.9638C224.07 27.9655 226.645 30.772 226.645 35.0516Z" fill="#9F9FAC"/>
<path id="Vector_13" d="M230.991 28.3395C233.095 28.3395 234.802 26.6331 234.802 24.5284C234.802 22.4236 233.095 20.7173 230.991 20.7173C228.886 20.7173 227.179 22.4236 227.179 24.5284C227.179 26.6331 228.886 28.3395 230.991 28.3395Z" fill="#9F9FAC"/>
</g>
</svg>
