<svg width="240" height="70" viewBox="0 0 240 70" fill="none" xmlns="http://www.w3.org/2000/svg">
<g id="Frame">
<path id="Vector" d="M73.5271 46.257H89.9391V41.277H79.3603V22.519H73.5271V46.257Z" fill="#9F9FAC"/>
<path id="Vector_2" d="M99.6644 42.9376C97.3246 42.9376 96.1052 40.8792 96.1052 37.7916C96.1052 34.704 97.3246 32.6124 99.6644 32.6124C102.004 32.6124 103.257 34.704 103.257 37.7916C103.257 40.8792 102.004 42.9376 99.6644 42.9376ZM99.6974 46.7888C105.135 46.7888 108.694 42.9044 108.694 37.7916C108.694 32.6788 105.135 28.7944 99.6974 28.7944C94.2926 28.7944 90.6675 32.6788 90.6675 37.7916C90.6675 42.9044 94.2926 46.7888 99.6974 46.7888Z" fill="#9F9FAC"/>
<path id="Vector_3" d="M118.105 52.1335C120.61 52.1335 122.818 51.5691 124.301 50.2411C125.652 49.0127 126.542 47.1535 126.542 44.5971V29.2587H121.401V31.0847H121.335C120.346 29.6571 118.83 28.7607 116.589 28.7607C112.404 28.7607 109.504 32.2799 109.504 37.2599C109.504 42.4723 113.03 45.3275 116.82 45.3275C118.863 45.3275 120.149 44.4975 121.137 43.3687H121.269V45.0619C121.269 47.1203 120.313 48.3155 118.039 48.3155C116.26 48.3155 115.37 47.5519 115.073 46.6555H109.866C110.394 50.2079 113.459 52.1335 118.105 52.1335ZM118.072 41.3103C116.062 41.3103 114.744 39.6503 114.744 37.0939C114.744 34.5043 116.062 32.8443 118.072 32.8443C120.313 32.8443 121.5 34.7699 121.5 37.0607C121.5 39.4511 120.412 41.3103 118.072 41.3103Z" fill="#9F9FAC"/>
<path id="Vector_4" d="M137.113 42.9376C134.773 42.9376 133.554 40.8792 133.554 37.7916C133.554 34.704 134.773 32.6124 137.113 32.6124C139.453 32.6124 140.705 34.704 140.705 37.7916C140.705 40.8792 139.453 42.9376 137.113 42.9376ZM137.146 46.7888C142.584 46.7888 146.143 42.9044 146.143 37.7916C146.143 32.6788 142.584 28.7944 137.146 28.7944C131.741 28.7944 128.116 32.6788 128.116 37.7916C128.116 42.9044 131.741 46.7888 137.146 46.7888Z" fill="#9F9FAC"/>
<path id="Vector_5" d="M147.711 46.257H153.083V29.2586H147.711V46.257ZM147.711 26.9014H153.083V22.519H147.711V26.9014Z" fill="#9F9FAC"/>
<path id="Vector_6" d="M155.415 51.8679H160.786V44.4975H160.852C161.907 45.9251 163.456 46.7883 165.631 46.7883C170.047 46.7883 172.98 43.2691 172.98 37.7579C172.98 32.6451 170.245 28.7607 165.763 28.7607C163.456 28.7607 161.808 29.7899 160.655 31.3171H160.556V29.2587H155.415V51.8679ZM164.247 42.6051C161.94 42.6051 160.622 40.7127 160.622 37.9571C160.622 35.2015 161.808 33.1099 164.148 33.1099C166.455 33.1099 167.542 35.0355 167.542 37.9571C167.542 40.8455 166.29 42.6051 164.247 42.6051Z" fill="#9F9FAC"/>
<path id="Vector_7" d="M181.726 46.7883C186.142 46.7883 189.405 44.8627 189.405 41.1443C189.405 36.7951 185.912 36.0315 182.946 35.5335C180.804 35.1351 178.892 34.9691 178.892 33.7739C178.892 32.7115 179.914 32.2135 181.232 32.2135C182.715 32.2135 183.737 32.6783 183.934 34.2055H188.878C188.614 30.8523 186.043 28.7607 181.265 28.7607C177.277 28.7607 173.982 30.6199 173.982 34.2055C173.982 38.1895 177.112 38.9863 180.046 39.4843C182.287 39.8827 184.33 40.0487 184.33 41.5759C184.33 42.6715 183.308 43.2691 181.693 43.2691C179.914 43.2691 178.793 42.4391 178.595 40.7459H173.52C173.685 44.4975 176.783 46.7883 181.726 46.7883Z" fill="#9F9FAC"/>
<path id="Vector_8" d="M196.704 46.7552C199.043 46.7552 200.526 45.8256 201.746 44.1656H201.845V46.2572H206.986V29.2588H201.614V38.754C201.614 40.7792 200.493 42.1736 198.648 42.1736C196.934 42.1736 196.11 41.1444 196.11 39.2852V29.2588H190.771V40.414C190.771 44.1988 192.815 46.7552 196.704 46.7552Z" fill="#9F9FAC"/>
<path id="Vector_9" d="M209.319 46.2571H214.691V36.7287C214.691 34.7035 215.68 33.2759 217.361 33.2759C218.975 33.2759 219.733 34.3383 219.733 36.1643V46.2571H225.105V36.7287C225.105 34.7035 226.061 33.2759 227.775 33.2759C229.389 33.2759 230.147 34.3383 230.147 36.1643V46.2571H235.519V35.2015C235.519 31.3835 233.608 28.7607 229.785 28.7607C227.61 28.7607 225.797 29.6903 224.479 31.7487H224.413C223.556 29.9227 221.876 28.7607 219.667 28.7607C217.229 28.7607 215.614 29.9227 214.559 31.6823H214.46V29.2587H209.319V46.2571Z" fill="#9F9FAC"/>
<path id="Vector_10" fill-rule="evenodd" clip-rule="evenodd" d="M30.7181 62.8572C45.8857 62.8572 58.1814 50.4704 58.1814 35.1906C58.1814 19.9107 45.8857 7.52393 30.7181 7.52393C15.5506 7.52393 3.25488 19.9107 3.25488 35.1906C3.25488 50.4704 15.5506 62.8572 30.7181 62.8572ZM39.2857 20.4122C39.7027 18.9199 38.2652 18.0374 36.9523 18.9797L18.6248 32.1328C17.201 33.1547 17.425 35.1906 18.9613 35.1906H23.7874V35.1529H33.1933L25.5292 37.8771L22.1506 49.969C21.7335 51.4613 23.171 52.3438 24.484 51.4014L42.8114 38.2484C44.2353 37.2265 44.0112 35.1906 42.475 35.1906H35.1563L39.2857 20.4122Z" fill="#9F9FAC"/>
</g>
</svg>
