<svg width="237" height="70" viewBox="0 0 237 70" fill="none" xmlns="http://www.w3.org/2000/svg">
<g id="Frame">
<path id="Vector" d="M70.4583 46.4076H86.6966V41.549H76.2297V23.2485H70.4583V46.4076Z" fill="#9F9FAC"/>
<path id="Vector_2" d="M96.3175 43.1689C94.0024 43.1689 92.7959 41.1607 92.7959 38.1484C92.7959 35.1361 94.0024 33.0955 96.3175 33.0955C98.6326 33.0955 99.8717 35.1361 99.8717 38.1484C99.8717 41.1607 98.6326 43.1689 96.3175 43.1689ZM96.3501 46.9261C101.73 46.9261 105.252 43.1365 105.252 38.1484C105.252 33.1603 101.73 29.3706 96.3501 29.3706C91.0026 29.3706 87.4158 33.1603 87.4158 38.1484C87.4158 43.1365 91.0026 46.9261 96.3501 46.9261Z" fill="#9F9FAC"/>
<path id="Vector_3" d="M114.562 52.1411C117.04 52.1411 119.225 51.5905 120.692 50.2949C122.029 49.0964 122.909 47.2826 122.909 44.7885V29.8242H117.823V31.6057H117.757C116.779 30.2129 115.279 29.3384 113.062 29.3384C108.921 29.3384 106.052 32.7717 106.052 37.6303C106.052 42.7155 109.54 45.5011 113.29 45.5011C115.312 45.5011 116.584 44.6914 117.562 43.5901H117.692V45.242C117.692 47.2502 116.747 48.4162 114.497 48.4162C112.736 48.4162 111.856 47.6713 111.562 46.7967H106.41C106.932 50.2625 109.964 52.1411 114.562 52.1411ZM114.529 41.5819C112.54 41.5819 111.236 39.9624 111.236 37.4683C111.236 34.9419 112.54 33.3224 114.529 33.3224C116.747 33.3224 117.921 35.201 117.921 37.4359C117.921 39.768 116.844 41.5819 114.529 41.5819Z" fill="#9F9FAC"/>
<path id="Vector_4" d="M133.37 43.1689C131.054 43.1689 129.848 41.1607 129.848 38.1484C129.848 35.1361 131.054 33.0955 133.37 33.0955C135.685 33.0955 136.924 35.1361 136.924 38.1484C136.924 41.1607 135.685 43.1689 133.37 43.1689ZM133.402 46.9261C138.782 46.9261 142.303 43.1365 142.303 38.1484C142.303 33.1603 138.782 29.3706 133.402 29.3706C128.055 29.3706 124.468 33.1603 124.468 38.1484C124.468 43.1365 128.055 46.9261 133.402 46.9261Z" fill="#9F9FAC"/>
<path id="Vector_5" d="M143.857 46.4066H149.172V29.8228H143.857V46.4066ZM143.857 27.5231H149.172V23.2476H143.857V27.5231Z" fill="#9F9FAC"/>
<path id="Vector_6" d="M151.476 51.882H156.791V44.6914H156.856C157.899 46.0841 159.432 46.9263 161.584 46.9263C165.953 46.9263 168.855 43.4929 168.855 38.1161C168.855 33.128 166.149 29.3384 161.714 29.3384C159.432 29.3384 157.802 30.3425 156.66 31.8324H156.563V29.8242H151.476V51.882ZM160.215 42.8451C157.932 42.8451 156.628 40.9989 156.628 38.3105C156.628 35.6221 157.802 33.5815 160.117 33.5815C162.399 33.5815 163.475 35.4601 163.475 38.3105C163.475 41.1284 162.236 42.8451 160.215 42.8451Z" fill="#9F9FAC"/>
<path id="Vector_7" d="M177.51 46.9263C181.879 46.9263 185.107 45.0476 185.107 41.4199C185.107 37.1768 181.651 36.4318 178.716 35.946C176.597 35.5573 174.705 35.3954 174.705 34.2293C174.705 33.1928 175.716 32.707 177.02 32.707C178.488 32.707 179.499 33.1604 179.694 34.6504H184.585C184.324 31.379 181.781 29.3384 177.053 29.3384C173.108 29.3384 169.847 31.1522 169.847 34.6504C169.847 38.5372 172.945 39.3146 175.847 39.8004C178.064 40.1891 180.086 40.3511 180.086 41.841C180.086 42.9099 179.075 43.4929 177.477 43.4929C175.716 43.4929 174.608 42.6832 174.412 41.0313H169.39C169.553 44.6914 172.618 46.9263 177.51 46.9263Z" fill="#9F9FAC"/>
<path id="Vector_8" d="M192.327 46.8939C194.642 46.8939 196.109 45.9869 197.316 44.3674H197.414V46.408H202.5V29.8242H197.186V39.0878C197.186 41.0636 196.077 42.424 194.251 42.424C192.555 42.424 191.74 41.4199 191.74 39.6061V29.8242H186.458V40.7073C186.458 44.3998 188.479 46.8939 192.327 46.8939Z" fill="#9F9FAC"/>
<path id="Vector_9" d="M204.813 46.408H210.128V37.112C210.128 35.1362 211.106 33.7435 212.769 33.7435C214.367 33.7435 215.117 34.7799 215.117 36.5614V46.408H220.432V37.112C220.432 35.1362 221.378 33.7435 223.073 33.7435C224.671 33.7435 225.421 34.7799 225.421 36.5614V46.408H230.736V35.6221C230.736 31.8972 228.845 29.3384 225.062 29.3384C222.91 29.3384 221.117 30.2453 219.812 32.2535H219.747C218.9 30.472 217.237 29.3384 215.052 29.3384C212.639 29.3384 211.041 30.472 209.998 32.1887H209.9V29.8242H204.813V46.408Z" fill="#9F9FAC"/>
<path id="Vector_10" d="M38.0309 10.0004L32.6874 8.57812L28.1844 25.272L24.119 10.2007L18.7753 11.6229L23.1678 27.9064L12.2272 17.0387L8.31545 20.9244L20.3159 32.8451L5.37126 28.8673L3.93945 34.1753L20.2683 38.5215C20.0814 37.7205 19.9825 36.8859 19.9825 36.0284C19.9825 29.9585 24.936 25.0379 31.0466 25.0379C37.1572 25.0379 42.1108 29.9585 42.1108 36.0284C42.1108 36.8804 42.0131 37.7099 41.8284 38.5061L56.6684 42.456L58.1001 37.148L41.7063 32.7845L56.6519 28.8065L55.2201 23.4985L38.8269 27.8617L49.7675 16.9941L45.8557 13.1083L34.0217 24.8636L38.0309 10.0004Z" fill="#9F9FAC"/>
<path id="Vector_11" d="M41.8123 38.5684C41.3541 40.4923 40.3869 42.2208 39.0598 43.6056L49.8107 54.2851L53.7224 50.3993L41.8123 38.5684Z" fill="#9F9FAC"/>
<path id="Vector_12" d="M38.9512 43.7178C37.6081 45.0805 35.9108 46.0974 34.0073 46.6214L37.9194 61.1242L43.2629 59.7018L38.9512 43.7178Z" fill="#9F9FAC"/>
<path id="Vector_13" d="M33.8087 46.6749C32.9256 46.9005 32 47.0203 31.0461 47.0203C30.0241 47.0203 29.0345 46.8826 28.095 46.625L24.1794 61.141L29.5229 62.5632L33.8087 46.6749Z" fill="#9F9FAC"/>
<path id="Vector_14" d="M27.9058 46.5721C26.0314 46.022 24.3643 44.9921 23.0486 43.6255L12.2712 54.3311L16.183 58.2169L27.9058 46.5721Z" fill="#9F9FAC"/>
<path id="Vector_15" d="M22.9588 43.5291C21.6656 42.1538 20.7237 40.4485 20.2753 38.5542L5.38696 42.517L6.81876 47.825L22.9588 43.5291Z" fill="#9F9FAC"/>
</g>
</svg>
