<svg width="24" height="24" viewBox="0 0 24 24" fill="none" xmlns="http://www.w3.org/2000/svg">
<g id="gg:link">
<g id="Group">
<path id="Vector" d="M14.8284 11.9999L16.2434 13.4139L19.0714 10.5859C19.8216 9.83576 20.243 8.81832 20.243 7.75743C20.243 6.69653 19.8216 5.67909 19.0714 4.92893C18.7 4.55748 18.259 4.26284 17.7737 4.06181C17.2884 3.86079 16.7682 3.75732 16.2429 3.75732C15.182 3.75732 14.1646 4.17876 13.4144 4.92893L10.5864 7.75693L12.0004 9.17193L14.8284 6.34293C15.2036 5.96778 15.7124 5.75702 16.2429 5.75702C16.7735 5.75702 17.2823 5.96778 17.6574 6.34293C18.0326 6.71808 18.2433 7.22689 18.2433 7.75743C18.2433 8.28797 18.0326 8.79678 17.6574 9.17193L14.8284 11.9999ZM12.0004 14.8289L13.4144 16.2429L10.5864 19.0709C9.83625 19.8211 8.81881 20.2425 7.75792 20.2425C6.69702 20.2425 5.67958 19.8211 4.92942 19.0709C4.17925 18.3208 3.75781 17.3033 3.75781 16.2424C3.75781 15.1815 4.17925 14.1641 4.92942 13.4139L7.75742 10.5859L9.17242 11.9999L6.34342 14.8289C5.9684 15.2041 5.75777 15.7128 5.75786 16.2433C5.75796 16.7737 5.96877 17.2824 6.34392 17.6574C6.71906 18.0324 7.22782 18.2431 7.75827 18.243C8.28872 18.2429 8.7974 18.0321 9.17242 17.6569L12.0004 14.8279V14.8289Z" fill="black"/>
<path id="Vector_2" d="M14.8295 10.586C15.0171 10.3983 15.1225 10.1438 15.1225 9.87849C15.1225 9.61312 15.0171 9.35863 14.8295 9.17099C14.6418 8.98334 14.3873 8.87793 14.122 8.87793C13.8566 8.87793 13.6021 8.98334 13.4145 9.17099L9.17248 13.414C9.07697 13.5062 9.00078 13.6166 8.94837 13.7386C8.89597 13.8606 8.86838 13.9918 8.86723 14.1246C8.86607 14.2574 8.89137 14.389 8.94165 14.5119C8.99193 14.6348 9.06619 14.7465 9.16008 14.8404C9.25397 14.9343 9.36562 15.0085 9.48852 15.0588C9.61142 15.1091 9.7431 15.1344 9.87588 15.1332C10.0087 15.1321 10.1399 15.1045 10.2619 15.0521C10.3839 14.9997 10.4942 14.9235 10.5865 14.828L14.8285 10.586H14.8295Z" fill="black"/>
</g>
</g>
</svg>
