<svg width="33" height="32" viewBox="0 0 33 32" fill="none" xmlns="http://www.w3.org/2000/svg">
<g id="Group 1000001769">
<circle id="Ellipse 2" cx="16.4072" cy="15.8642" r="15.8642" fill="#FFEE06"/>
<g id="Instagram">
<path id="Vector" d="M19.8541 21.6495H12.3993C11.3692 21.6495 10.5276 20.8079 10.5276 19.7777V12.3229C10.5276 11.2928 11.3692 10.4512 12.3993 10.4512H19.8541C20.8843 10.4512 21.7259 11.2928 21.7259 12.3229V19.7777C21.7259 20.8125 20.8889 21.6495 19.8541 21.6495Z" fill="#1C1C22"/>
<path id="Vector_2" d="M16.1291 18.927C15.3611 18.927 14.639 18.628 14.0964 18.0854C13.5537 17.5427 13.2548 16.8207 13.2548 16.0526C13.2548 15.2846 13.5537 14.5626 14.0964 14.0199C14.639 13.4773 15.3611 13.1783 16.1291 13.1783C16.8971 13.1783 17.6191 13.4773 18.1618 14.0199C18.7044 14.5626 19.0034 15.2846 19.0034 16.0526C19.0034 16.8207 18.7044 17.5427 18.1618 18.0854C17.6145 18.628 16.8971 18.927 16.1291 18.927ZM16.1291 13.79C14.8828 13.79 13.8664 14.8018 13.8664 16.0526C13.8664 17.2989 14.8782 18.3153 16.1291 18.3153C17.3754 18.3153 18.3917 17.3035 18.3917 16.0526C18.3871 14.8064 17.3754 13.79 16.1291 13.79Z" fill="#FFEE06"/>
<path id="Vector_3" d="M19.5636 13.084C19.8684 13.084 20.1155 12.8369 20.1155 12.5321C20.1155 12.2273 19.8684 11.9802 19.5636 11.9802C19.2588 11.9802 19.0117 12.2273 19.0117 12.5321C19.0117 12.8369 19.2588 13.084 19.5636 13.084Z" fill="#FFEE06"/>
</g>
</g>
</svg>
