<svg width="100" height="71" viewBox="0 0 100 71" fill="none" xmlns="http://www.w3.org/2000/svg">
<path id="&#226;&#128;&#156;" d="M62.1539 24.7396L62.1262 24.762L62.0996 24.7858C59.9033 26.7464 58.8245 29.3343 58.8245 32.4048V64.9048C58.8245 66.1661 59.1393 67.388 60.0321 68.2846C60.9261 69.1824 62.1464 69.5 63.4065 69.5H93.918C95.1781 69.5 96.3984 69.1824 97.2924 68.2846C98.1852 67.388 98.5 66.1661 98.5 64.9048V6.40477C98.5 5.04029 98.1596 3.74105 97.2155 2.79284C96.2702 1.84343 94.9728 1.5 93.6099 1.5C91.5045 1.5 89.5306 2.42784 87.7114 4.01976L62.1539 24.7396ZM4.82909 24.7396L4.80138 24.762L4.77478 24.7858C2.57847 26.7465 1.5 29.3344 1.5 32.4048V64.9048C1.5 66.1661 1.81482 67.388 2.70761 68.2846C3.60157 69.1824 4.82186 69.5 6.08203 69.5H36.5935C37.8536 69.5 39.0739 69.1824 39.9679 68.2846C40.8607 67.388 41.1755 66.1661 41.1755 64.9048V6.40477C41.1755 5.04019 40.835 3.74095 39.8908 2.79277C38.9454 1.84343 37.6481 1.5 36.2852 1.5C34.1797 1.5 32.206 2.42789 30.3869 4.01974L4.82909 24.7396Z" stroke="#FFEE06" stroke-width="3"/>
</svg>
