<svg width="32" height="32" viewBox="0 0 32 32" fill="none" xmlns="http://www.w3.org/2000/svg">
<g id="Group 1000001770">
<circle id="Ellipse 3" cx="16.1357" cy="15.8642" r="15.8642" fill="#FFEE06"/>
<path id="Twitter" d="M9.79028 20.6183C11.1564 20.6954 12.351 20.3752 13.5161 19.5272C12.3392 19.3256 11.5231 18.786 11.0795 17.6712C11.4225 17.6237 11.7242 17.7127 12.079 17.5704C10.9199 17.0604 10.1688 16.2955 10.1392 14.9731C10.5059 15.0028 10.7838 15.2459 11.2215 15.2103C10.157 14.1667 9.83168 13.0281 10.5 11.6465C11.6118 12.9273 12.9129 13.799 14.5037 14.2082C14.5924 14.2319 14.6752 14.2556 14.7639 14.2734C15.172 14.3683 15.657 14.5699 15.9053 14.5402C16.3311 14.4869 15.9053 13.9947 16.0118 13.3543C16.3489 11.3619 18.5371 10.4546 20.1575 11.6228C20.6306 11.9667 21.0032 11.9608 21.4704 11.7532C21.7129 11.6465 21.9613 11.5397 22.251 11.4152C22.186 11.9845 21.7484 12.2988 21.3994 12.7198C21.7957 12.8087 22.115 12.6961 22.4817 12.5775C22.3575 12.9866 22.05 13.2179 21.772 13.4432C21.4822 13.6745 21.3699 13.9176 21.358 14.2971C21.1806 20.0431 14.6693 24.4845 10.2161 20.9504C9.78437 20.6064 10.2043 20.9504 9.79028 20.6183Z" fill="#1C1C22"/>
</g>
</svg>
