<svg width="88" height="87" viewBox="0 0 88 87" fill="none" xmlns="http://www.w3.org/2000/svg">
<g id="Frame" clip-path="url(#clip0_688_6749)">
<path id="Vector" d="M0.500475 12.4885C0.926019 10.7504 1.46391 9.06176 2.61288 7.63894C4.49038 5.31471 6.88705 3.96516 9.88458 3.77772C11.4404 3.6806 11.8319 4.08274 11.8336 5.69129C11.837 9.29861 11.8336 12.9059 11.8336 16.5133C11.8336 16.8506 11.8336 17.188 11.8336 17.6242C12.1825 17.643 12.4804 17.6737 12.7783 17.6737C25.4067 17.6754 38.0352 17.6737 50.6637 17.6873C51.2509 17.6873 51.656 17.4999 52.0662 17.0858C57.1983 11.9108 62.3491 6.75287 67.4948 1.59322C69.6106 -0.528229 71.7366 -0.529933 73.8456 1.5813C74.9673 2.70422 76.0976 3.82032 77.2074 4.95688C78.9913 6.78524 78.9981 9.01405 77.2057 10.8407C75.2193 12.865 73.2073 14.8621 71.2055 16.8728C71.0081 17.0705 70.8208 17.2766 70.4974 17.6191C70.9264 17.643 71.214 17.6737 71.5 17.6737C73.992 17.6771 76.484 17.6754 78.9743 17.6754C81.3556 17.6754 81.502 17.8253 81.502 20.2552C81.502 28.0952 81.502 35.9352 81.502 43.7752V44.772C81.565 44.8095 81.628 44.8487 81.6926 44.8862C82.6305 43.9286 83.5701 42.9692 84.508 42.0116C84.7072 41.8088 84.9098 41.6111 85.1072 41.4084C85.5532 40.9517 86.0587 40.6757 86.7039 40.9534C87.3422 41.2277 87.4971 41.773 87.4971 42.4171C87.492 48.5804 87.4937 54.7454 87.4937 60.9087C87.4937 68.9191 87.4937 76.9295 87.4937 84.9399C87.4937 86.6762 87.1839 86.9949 85.4902 86.9949C71.4745 86.9949 57.4587 86.9949 43.443 86.9949C43.1043 86.9949 42.7519 87.0222 42.4285 86.9438C41.4651 86.7086 41.1672 85.5704 41.8906 84.7831C42.677 83.9277 43.523 83.1269 44.3435 82.3038C45.901 80.7413 47.4602 79.1787 49.193 77.4407H48.0202C35.533 77.4407 23.0458 77.4356 10.5603 77.4441C6.54491 77.4475 3.51673 75.735 1.63242 72.1839C1.07411 71.1309 0.866443 69.8921 0.49707 68.7402C0.500475 49.9879 0.500475 31.239 0.500475 12.4885ZM9.2769 6.46319C8.95008 6.51261 8.78327 6.52454 8.62327 6.56543C5.2853 7.39868 3.05544 10.4318 3.05374 14.1924C3.04693 29.6765 3.05034 45.1605 3.05034 60.6446C3.05034 60.8559 3.05034 61.0655 3.05034 61.4812C4.68953 59.8318 6.42746 58.7566 8.51603 58.38C9.12541 58.2709 9.29563 58.0358 9.28882 57.4377C9.25818 55.0811 9.26669 52.7228 9.28371 50.3645C9.29052 49.4188 9.78926 48.8582 10.5416 48.8582C11.2821 48.8582 11.8166 49.429 11.8234 50.3628C11.8455 53.2885 11.8472 56.2142 11.8234 59.14C11.8148 60.2203 11.345 60.6309 10.2403 60.7178C9.73479 60.757 9.22243 60.8082 8.73221 60.9274C4.42059 61.9839 1.34646 67.118 4.18739 71.5705C5.6768 73.9066 7.88452 74.8813 10.5927 74.8813C22.7411 74.8779 34.8896 74.8813 47.0363 74.8779C48.5938 74.8779 50.33 75.292 51.656 74.7331C53.0127 74.1622 53.9693 72.6304 55.0978 71.516C55.7038 70.9179 56.2842 70.2942 56.9123 69.7217C57.4656 69.2173 58.2077 69.2258 58.6809 69.6774C59.2086 70.1817 59.2205 70.877 58.6996 71.5126C58.5379 71.7085 58.3473 71.8823 58.1668 72.0629C54.3233 75.9207 50.4781 79.7768 46.6346 83.6347C46.4218 83.8476 46.221 84.0726 45.935 84.3776H84.8876V78.3216C84.1914 78.3216 83.5446 78.3302 82.8995 78.3199C81.8731 78.3012 81.3386 77.8582 81.342 77.0454C81.3471 76.2445 81.8935 75.7895 82.9148 75.7623C83.5582 75.7452 84.2034 75.7589 84.8842 75.7589V71.9181C84.1234 71.9181 83.4169 71.9505 82.714 71.9096C81.8135 71.8568 81.3301 71.3694 81.3437 70.6077C81.3573 69.8461 81.8458 69.3996 82.7616 69.3672C83.4612 69.3434 84.1625 69.3621 84.8893 69.3621V65.4941C84.1642 65.4941 83.4901 65.5077 82.8161 65.4907C81.885 65.4668 81.3369 64.9778 81.3403 64.2042C81.3437 63.4289 81.8867 62.9569 82.828 62.9381C83.5208 62.9245 84.2153 62.9347 84.8706 62.9347V59.0514C84.1506 59.0514 83.5021 59.0616 82.8535 59.0497C81.8748 59.0292 81.3607 58.6015 81.3454 57.816C81.3284 57.0032 81.8714 56.5244 82.8774 56.4954C83.5446 56.4766 84.2136 56.492 84.8672 56.492V45.3991C84.5012 45.5456 84.3259 45.8097 84.1063 46.0296C79.7249 50.4326 75.3401 54.8323 70.9553 59.232C68.2131 61.9839 65.4726 64.7392 62.7253 67.4878C62.0291 68.183 61.2444 68.275 60.7082 67.757C60.1158 67.1844 60.1941 66.4347 60.9278 65.6679C61.0657 65.5248 61.2086 65.3867 61.3482 65.2453C67.0148 59.5608 72.6864 53.8815 78.3326 48.1749C78.6492 47.8545 78.9198 47.3161 78.9215 46.8781C78.9555 38.2986 78.9385 29.7208 78.9624 21.1413C78.9641 20.4375 78.7734 20.2194 78.0636 20.2279C74.9214 20.2637 71.7775 20.2569 68.6335 20.2313C68.0412 20.2262 67.6395 20.4324 67.2309 20.8431C59.9116 28.2042 52.4986 35.4734 45.2933 42.9454C42.66 45.6768 39.8446 47.8 36.1339 48.6673C35.3338 48.8548 34.5781 49.2228 33.8019 49.5091C33.8155 49.5585 33.8274 49.6062 33.841 49.6556C35.167 49.6556 36.4947 49.6556 37.8207 49.6556C44.6448 49.6556 51.4705 49.6539 58.2945 49.659C59.3482 49.659 59.9592 50.1583 59.9439 50.9626C59.9303 51.7396 59.3414 52.215 58.3388 52.215C46.7572 52.2184 35.1755 52.2184 23.5939 52.215C22.6407 52.215 22.0926 51.7515 22.0688 50.9864C22.0449 50.1805 22.6067 49.6778 23.5956 49.6624C24.6152 49.6454 25.6365 49.6147 26.6527 49.6744C27.3251 49.7136 27.6349 49.5091 27.8596 48.8445C29.08 45.2474 30.3567 41.6708 31.6214 38.089C31.7337 37.7721 31.8342 37.4074 32.0571 37.1791C34.0623 35.1343 36.0913 33.1134 38.1186 31.0891C38.2156 30.992 38.3637 30.859 38.4727 30.8727C38.9442 30.9323 39.5638 30.8914 39.8361 31.1726C40.1084 31.4537 40.1238 32.0842 40.0744 32.5426C40.0438 32.8237 39.6965 33.0878 39.4599 33.3264C37.9263 34.8736 36.3841 36.414 34.9168 37.8828C36.8828 39.8731 38.808 41.8224 40.648 43.6849C49.404 34.9043 58.1907 26.0947 66.945 17.3141C65.0726 15.438 63.1525 13.5125 61.0503 11.4047C60.9005 11.6365 60.7695 11.9381 60.555 12.1545C55.0961 17.6464 49.6287 23.1281 44.1613 28.6115C43.9213 28.8518 43.6813 29.1022 43.4005 29.2863C42.8524 29.6475 42.2991 29.5572 41.8549 29.1057C41.4089 28.6524 41.3391 28.1003 41.6983 27.5516C41.8515 27.3165 42.0574 27.1137 42.2566 26.9126C44.1954 24.9616 46.141 23.0156 48.0797 21.0646C48.2891 20.8533 48.4832 20.6267 48.7793 20.3046H11.8336V21.3645C11.8336 28.9779 11.8336 36.5912 11.8285 44.2046C11.8285 44.5982 11.82 45.0089 11.7144 45.3838C11.5391 46.0091 11.0676 46.3005 10.4225 46.2426C9.81649 46.1897 9.4284 45.8404 9.32967 45.2372C9.27009 44.876 9.2769 44.5011 9.2769 44.133C9.2752 31.9752 9.2752 19.8156 9.2752 7.65768C9.2752 7.29473 9.2752 6.93179 9.2752 6.46319H9.2769ZM73.1715 11.3093C73.9392 10.5272 74.7239 9.75187 75.478 8.9493C76.1197 8.2677 76.1623 7.56737 75.5376 6.91304C74.266 5.58564 72.9639 4.28721 71.6464 3.00753C71.0898 2.46907 70.4004 2.39409 69.8131 2.93425C68.9263 3.75046 68.1042 4.63653 67.3143 5.43058C69.2753 7.39697 71.1851 9.31395 73.1732 11.3076L73.1715 11.3093ZM63.1576 9.62407C65.1083 11.5973 67.0165 13.5262 68.8889 15.4193C69.6344 14.6917 70.3987 13.9488 71.0625 13.3013C69.1289 11.3604 67.2003 9.42471 65.2854 7.50432C64.6198 8.16717 63.8794 8.90499 63.1576 9.62407ZM38.1424 45.2253C36.5594 43.6304 35.0292 42.0883 33.5159 40.5632C31.9891 43.6184 32.0333 43.9575 34.287 46.067C34.3279 46.1062 34.3619 46.1727 34.4096 46.1829C34.6342 46.2323 34.8896 46.3567 35.0819 46.2937C36.1288 45.9563 37.1603 45.5729 38.1424 45.2236V45.2253Z" fill="#1C1C22"/>
<path id="Vector_2" d="M70.0033 77.9349C67.8229 77.9349 65.6424 77.9263 63.4619 77.94C62.798 77.9434 62.1852 77.8377 61.8942 77.1698C61.5895 76.4694 61.9265 75.9293 62.4252 75.43C66.8764 70.9775 71.3208 66.5182 75.7618 62.0538C76.252 61.5613 76.7729 61.1899 77.4861 61.4949C78.2044 61.8016 78.2827 62.4542 78.2827 63.1375C78.2793 67.4554 78.2827 71.7733 78.2793 76.0911C78.2793 77.5037 77.8504 77.9314 76.458 77.9349C74.3064 77.94 72.1532 77.9349 70.0016 77.9349H70.0033ZM75.6835 66.1689C72.6519 69.2105 69.5625 72.3083 66.5615 75.3192H75.6835V66.1689Z" fill="#1C1C22"/>
</g>
<defs>
<clipPath id="clip0_688_6749">
<rect width="87" height="87" fill="white" transform="translate(0.5)"/>
</clipPath>
</defs>
</svg>
