<svg width="25" height="24" viewBox="0 0 25 24" fill="none" xmlns="http://www.w3.org/2000/svg">
<g id="Frame" clip-path="url(#clip0_107_1593)">
<g id="cjETYi.tif">
<g id="Group">
<path id="Vector" d="M13.2954 0C13.8508 0.0778125 14.4101 0.135 14.9613 0.236719C16.5887 0.537656 18.0756 1.185 19.4408 2.11406C19.8788 2.41219 19.9869 2.96391 19.712 3.39516C19.4399 3.82219 18.882 3.9675 18.4365 3.68344C17.5972 3.14813 16.7325 2.66719 15.7762 2.37703C12.5528 1.39922 9.53111 1.82203 6.77113 3.77016C4.75789 5.19094 3.42091 7.11609 2.82643 9.51375C2.10835 12.4092 2.55903 15.1397 4.22592 17.6133C5.88341 20.0728 8.2101 21.5634 11.1562 22.0111C13.3879 22.35 15.5088 21.9558 17.4981 20.8795C17.6353 20.8055 17.7702 20.7262 17.9093 20.6559C18.3886 20.4145 18.9163 20.5584 19.1725 20.9977C19.4352 21.4477 19.3097 22.0223 18.8266 22.2722C18.0798 22.658 17.3214 23.0306 16.5394 23.3353C15.5755 23.7108 14.5571 23.8884 13.5237 23.963C13.4627 23.9672 13.4025 23.9873 13.3419 24H11.9349C11.8667 23.9864 11.7986 23.9709 11.7304 23.9592C10.9701 23.8298 10.1918 23.7647 9.45169 23.5617C3.78276 22.0083 -0.331592 16.4222 0.848906 9.75281C1.27279 7.35703 2.38891 5.29641 4.10044 3.56953C5.89469 1.75875 8.05032 0.61875 10.5692 0.184687C11.0218 0.106875 11.48 0.0609375 11.9353 0C12.3888 0 12.8423 0 13.2954 0Z" fill="#1C1C22"/>
<path id="Vector_2" d="M24.6458 3.04692C24.5156 3.25692 24.4052 3.48332 24.2515 3.67457C21.0395 7.67536 17.8232 11.6724 14.6059 15.6689C13.698 16.7972 12.1383 16.9271 11.0419 15.9155C9.39428 14.3954 7.77908 12.8405 6.1559 11.2936C5.74611 10.9032 5.73295 10.336 6.09575 9.95208C6.47123 9.55504 7.03939 9.55457 7.47409 9.96567C9.05827 11.4624 10.6382 12.9633 12.2205 14.4624C12.5979 14.8196 12.8949 14.7994 13.2234 14.3958C13.2332 14.3836 13.2436 14.3719 13.253 14.3597C16.4246 10.4166 19.5958 6.47301 22.7698 2.53223C22.9056 2.36348 23.0489 2.18629 23.2252 2.06817C23.6928 1.75457 24.3333 1.96551 24.5608 2.48395C24.5885 2.54676 24.6171 2.60957 24.6453 2.67239V3.04739L24.6458 3.04692Z" fill="#1C1C22"/>
<path id="Vector_3" d="M24.6458 12.6562C24.5682 13.2023 24.5095 13.7521 24.4099 14.2945C24.1204 15.8643 23.5015 17.3034 22.6255 18.6332C22.3196 19.0978 21.7693 19.206 21.3111 18.9164C20.8952 18.6534 20.7641 18.0932 21.0474 17.6362C21.5305 16.8586 21.9577 16.0565 22.2458 15.1846C22.8609 13.3218 22.9258 11.4389 22.4671 9.53339C22.3388 9.00089 22.5536 8.55652 23.0038 8.3723C23.5489 8.14964 24.1425 8.44402 24.268 9.04168C24.4052 9.69652 24.4916 10.3621 24.6007 11.0226C24.6134 11.0986 24.6308 11.174 24.6458 11.2495V12.6557V12.6562Z" fill="#1C1C22"/>
</g>
</g>
</g>
<defs>
<clipPath id="clip0_107_1593">
<rect width="24" height="24" fill="white" transform="translate(0.645752)"/>
</clipPath>
</defs>
</svg>
