<svg width="83" height="87" viewBox="0 0 83 87" fill="none" xmlns="http://www.w3.org/2000/svg">
<g id="Frame" clip-path="url(#clip0_688_6729)">
<g id="qtCwUe.tif">
<g id="Group">
<path id="Vector" d="M34.6471 0H56.3873C56.8826 0.440098 57.354 0.898887 57.0732 1.65334C56.777 2.44687 56.0963 2.49785 55.3934 2.49785C55.196 2.49785 54.9968 2.49785 54.7994 2.49785C48.8581 2.49785 42.9167 2.49785 36.9737 2.49785C36.6452 2.49785 36.3167 2.49785 35.9508 2.49785V3.88781H70.7548V2.49785C70.4042 2.49785 70.1012 2.49785 69.7966 2.49785C67.9296 2.49785 66.0626 2.49785 64.1939 2.49785C63.4791 2.49785 62.8035 2.3976 62.5499 1.59896C62.3082 0.832617 62.7711 0.377227 63.3498 0H72.0125C72.9349 0.389121 73.3281 1.0858 73.2736 2.08154C73.2396 2.70346 73.2685 3.32707 73.2668 3.95068C73.2668 5.80283 73.1323 5.99145 71.4645 6.56408V59.8329C72.8158 58.9663 74.0412 58.098 75.3448 57.3673C77.2169 56.3189 79.4668 56.6418 81.1092 58.0759C82.6971 59.4642 83.3523 61.7853 82.469 63.7105C82.0248 64.6774 81.2913 65.5813 80.4999 66.3052C75.401 70.9645 70.2527 75.5711 65.1113 80.1844C63.2749 81.8327 61.122 82.876 58.6883 83.2379C51.947 84.2405 45.1973 85.1835 38.4543 86.164C36.7269 86.4155 35.008 86.7196 33.2856 87H30.9081C30.3277 86.808 29.7371 86.6381 29.1653 86.4223C25.8398 85.1682 22.5194 83.9006 19.1955 82.6415C17.0154 81.8157 14.8319 80.9967 12.6126 80.1606C12.5377 80.5464 12.4934 80.8522 12.4203 81.1513C12.0203 82.7588 11.0706 84.0909 9.45384 84.2897C7.35539 84.548 5.17184 84.5599 3.0802 84.2745C1.25065 84.0247 0.43884 82.4189 -0.00195312 80.7146V77.4861C0.365659 76.8778 0.791135 76.3578 1.61486 76.6059C2.43007 76.8506 2.53048 77.5133 2.52708 78.2303C2.52368 78.8251 2.51346 79.4198 2.53048 80.0128C2.56963 81.328 3.28443 82.0502 4.6 82.0774C5.6739 82.0994 6.74951 82.091 7.82341 82.0808C9.33811 82.0672 10.0461 81.3637 10.0478 79.8276C10.0546 70.7453 10.0546 61.6629 10.0478 52.5806C10.0478 51.0802 9.31768 50.3665 7.80299 50.336C6.89757 50.3173 5.99386 50.3309 5.08845 50.3326C3.19082 50.3377 2.52878 50.9885 2.52878 52.8644C2.52708 58.4106 2.52538 63.9552 2.52878 69.5014C2.52878 70.2593 2.40454 70.9577 1.54848 71.165C0.738376 71.3604 0.292477 70.8608 -0.00195312 70.1794C-0.00195312 64.0062 -0.00195312 57.8312 -0.00195312 51.658C0.050806 51.5305 0.11718 51.4082 0.15292 51.2773C0.726463 49.1839 2.22074 47.9588 4.37875 47.8925C5.73517 47.8517 7.0967 47.8517 8.45311 47.9129C10.4409 48.0029 12.0339 49.4099 12.4356 51.3623C12.5309 51.8262 12.5581 52.3054 12.6245 52.8338H16.1049V51.8432C16.1049 48.4736 16.1049 45.1041 16.1049 41.7345C16.1049 36.0999 16.0998 30.4636 16.1083 24.829C16.11 23.1841 16.8639 22.4416 18.491 22.4229C18.9335 22.4178 19.3742 22.4229 19.8797 22.4229C19.8797 21.4407 19.8678 20.5673 19.8831 19.6939C19.9086 18.2003 20.6285 17.434 22.1262 17.4187C25.0416 17.3881 27.957 17.3898 30.8723 17.4187C32.4194 17.434 33.1171 18.1918 33.1307 19.7551C33.1376 20.6217 33.1307 21.49 33.1307 22.3549H35.636V6.51311C33.8047 6.3007 33.4405 5.88779 33.4388 4.06793C33.4388 3.44432 33.4728 2.819 33.4303 2.19879C33.3605 1.18775 33.6975 0.431602 34.6471 0V0ZM12.5598 55.4251C12.5598 55.7752 12.5598 56.0538 12.5598 56.3325C12.5598 63.0988 12.57 69.8668 12.5428 76.6331C12.5394 77.2822 12.7436 77.5625 13.3359 77.7834C18.8909 79.865 24.4187 82.0196 29.9975 84.04C31.0391 84.4172 32.2951 84.5038 33.4014 84.3543C41.1603 83.3025 48.9057 82.1334 56.6596 81.0459C59.1376 80.6993 61.4845 80.1131 63.4026 78.3799C66.6158 75.4776 69.8409 72.5872 73.0609 69.6918C75.1644 67.7988 77.2765 65.9127 79.3681 64.0062C80.3416 63.1175 80.6088 61.8312 80.1 60.7675C79.5809 59.6834 78.4321 59.0563 77.2186 59.3197C76.6859 59.4353 76.1668 59.7275 75.7039 60.0351C70.5233 63.4828 65.3495 66.9407 60.1945 70.4241C59.5171 70.8812 58.8534 71.0528 58.0501 70.9815C54.8947 70.6977 51.7343 70.4836 48.5807 70.1862C42.1611 69.583 35.7432 68.9458 29.3253 68.3154C28.3892 68.2236 27.9076 67.6952 27.9944 66.9067C28.0761 66.1744 28.6462 65.7734 29.5567 65.8617C35.413 66.4276 41.2676 67.0019 47.1221 67.5711C48.9125 67.7445 50.7029 67.9042 52.5001 68.0724C52.5155 65.7088 50.8578 63.6765 48.5738 63.2296C47.6872 63.0563 46.7817 62.9798 45.8831 62.8762C42.287 62.4616 38.6841 62.0996 35.0965 61.629C31.6654 61.1804 28.4914 59.9569 25.4824 58.2458C21.5135 55.9893 17.2094 55.1583 12.5581 55.4251H12.5598ZM39.8192 59.6783C39.8192 58.1303 39.7937 56.7182 39.826 55.3096C39.855 54.0504 40.4183 53.5084 41.6658 53.4914C43.0801 53.4727 44.4961 53.4761 45.9121 53.4897C47.2872 53.5016 47.8454 54.0691 47.859 55.4727C47.8727 56.8881 47.859 58.3053 47.8642 59.7207C47.8642 60.0181 47.8948 60.3138 47.9101 60.5924C48.4905 60.6825 48.9585 60.7539 49.5031 60.8371C49.5184 60.5041 49.5388 60.2305 49.5405 59.9569C49.5439 58.4276 49.5286 56.8983 49.5473 55.369C49.5627 54.0555 50.1073 53.5067 51.4007 53.4914C52.8167 53.4744 54.231 53.4761 55.647 53.4914C56.9881 53.505 57.5531 54.0708 57.565 55.4149C57.5786 56.9442 57.5684 58.4735 57.5684 60.0028C57.5684 62.0827 57.1549 62.499 55.0887 62.5007C54.2974 62.5007 53.5077 62.5007 52.5018 62.5007C54.311 64.2033 54.9866 66.1387 55.1211 68.2831C55.9584 68.3443 56.6953 68.3647 57.4221 68.4615C58.2271 68.5686 58.8755 68.3341 59.5443 67.8753C62.4137 65.9059 65.3087 63.9739 68.2189 62.0674C68.7602 61.7122 68.944 61.3367 68.944 60.6961C68.9252 42.9393 68.9286 25.1824 68.9286 7.42559V6.50121H38.2365V59.4676C38.7385 59.5338 39.2066 59.5967 39.8209 59.6783H39.8192ZM20.2082 53.5458C20.2082 52.6622 20.2048 51.8738 20.2082 51.0836C20.2133 49.5968 20.7 49.1108 22.2045 49.1108C26.364 49.1074 30.5251 49.1108 34.6846 49.1108H35.624V45.6155C35.2326 45.6155 34.8973 45.6155 34.5621 45.6155C30.5149 45.6155 26.4678 45.6155 22.4224 45.6155C20.6098 45.6155 20.2099 45.2179 20.2082 43.4405C20.2082 42.647 20.2082 41.8552 20.2082 41.0616C20.2099 39.3981 20.6643 38.9376 22.3185 38.9359C26.4508 38.9342 30.5813 38.9359 34.7135 38.9359C35.0131 38.9359 35.3143 38.9359 35.6343 38.9359V35.4695C33.7571 35.4695 31.9241 35.4695 30.0928 35.4695C27.4328 35.4695 24.7727 35.478 22.1126 35.4661C20.7596 35.4593 20.2235 34.9359 20.2099 33.6479C20.1997 32.7422 20.2065 31.8366 20.2082 30.9292C20.2082 29.2113 20.6439 28.7763 22.3713 28.7746C26.4457 28.7729 30.5217 28.7746 34.5961 28.7746H35.6308V24.9649H18.6118V53.1822C19.09 53.2926 19.5785 53.403 20.2082 53.5475V53.5458ZM22.761 31.3115V32.9241H35.6257V31.3115H22.761ZM35.6428 41.4932H22.7712V43.0956H35.6428V41.4932ZM35.6308 51.6732H22.7525V53.262H35.6308V51.6732ZM22.4326 22.377H30.5796V19.9335H22.4326V22.377ZM35.6291 55.8142H26.3146C29.327 57.6545 32.3343 58.7539 35.6291 59.1634V55.8142ZM42.3517 55.9876V59.9331H45.3028V55.9876H42.3517ZM52.0611 55.9944V59.9467H55.0122V55.9944H52.0611Z" fill="#1C1C22"/>
<path id="Vector_2" d="M39.8208 43.3623C39.8208 42.4855 39.7953 41.607 39.8277 40.7302C39.8736 39.4898 40.4523 38.9307 41.6861 38.9171C43.1294 38.9019 44.5726 38.9002 46.0141 38.9171C47.1935 38.9307 47.8232 39.5017 47.8487 40.6724C47.8896 42.511 47.8896 44.3529 47.8487 46.1915C47.8232 47.3249 47.1986 47.8992 46.0719 47.9145C44.5726 47.9349 43.0732 47.9366 41.5738 47.9145C40.4812 47.8975 39.894 47.3453 39.8379 46.2493C39.7885 45.2892 39.8277 44.3258 39.8277 43.3623C39.826 43.3623 39.8225 43.3623 39.8208 43.3623ZM42.355 41.4354V45.3572H45.2908V41.4354H42.355Z" fill="#1C1C22"/>
<path id="Vector_3" d="M47.8624 28.8324C47.8624 29.7092 47.8794 30.5877 47.859 31.4645C47.8266 32.7576 47.2633 33.3285 45.9835 33.3438C44.5402 33.3625 43.097 33.3625 41.6555 33.3438C40.4438 33.3268 39.8617 32.7967 39.8345 31.6004C39.7936 29.7907 39.797 27.9777 39.8311 26.1663C39.8549 24.9361 40.4455 24.3702 41.6913 24.3464C43.1328 24.3176 44.5777 24.3142 46.0192 24.3464C47.2412 24.3753 47.8198 24.9769 47.859 26.2003C47.8862 27.0771 47.8641 27.9556 47.8641 28.8324H47.8624ZM45.3027 30.8511V26.9072H42.3584V30.8511H45.3027Z" fill="#1C1C22"/>
<path id="Vector_4" d="M47.8625 14.3261C47.8625 15.2029 47.8846 16.0814 47.8574 16.9581C47.82 18.1816 47.2396 18.7797 46.0159 18.8086C44.5744 18.8426 43.1295 18.8392 41.688 18.8086C40.4422 18.7831 39.8533 18.219 39.8295 16.9887C39.7938 15.2063 39.7972 13.4221 39.8295 11.6396C39.8516 10.3771 40.4133 9.82993 41.6573 9.80954C43.1006 9.78745 44.5438 9.78745 45.9853 9.80954C47.2668 9.82823 47.8285 10.3975 47.8591 11.694C47.8812 12.5708 47.8625 13.4493 47.8625 14.3261ZM45.3062 16.2785V12.3261H42.35V16.2785H45.3062Z" fill="#1C1C22"/>
<path id="Vector_5" d="M59.2566 43.4235C59.2566 42.4889 59.2379 41.5561 59.2617 40.6215C59.2907 39.5391 59.871 38.941 60.9585 38.9189C62.4851 38.89 64.0135 38.89 65.5401 38.9189C66.6565 38.9393 67.2471 39.5527 67.259 40.6929C67.2794 42.5042 67.2794 44.3156 67.259 46.127C67.2471 47.3045 66.648 47.8976 65.4686 47.9145C63.9981 47.9349 62.526 47.9332 61.0555 47.9145C59.8608 47.8993 59.2822 47.3215 59.2583 46.1406C59.2396 45.2349 59.2549 44.3292 59.2549 43.4235H59.2566ZM64.7231 41.4847H61.7703V45.3538H64.7231V41.4847Z" fill="#1C1C22"/>
<path id="Vector_6" d="M49.5456 43.4303C49.5456 42.5246 49.5268 41.6189 49.549 40.7132C49.5796 39.5136 50.1446 38.9341 51.3275 38.9188C52.8268 38.8968 54.3262 38.8951 55.8256 38.9205C56.9046 38.9392 57.5343 39.5323 57.5547 40.6045C57.5922 42.4719 57.5888 44.3411 57.5564 46.2085C57.5377 47.2909 56.9216 47.8941 55.8494 47.9128C54.3228 47.94 52.7945 47.94 51.2662 47.9128C50.1702 47.8941 49.5898 47.3198 49.5524 46.2323C49.52 45.2994 49.5456 44.3648 49.5439 43.4303H49.5456ZM52.0525 41.4558V45.3538H55.0104V41.4558H52.0525Z" fill="#1C1C22"/>
<path id="Vector_7" d="M59.2571 28.856C59.2571 27.9503 59.2435 27.0446 59.2605 26.1389C59.2826 25.0277 59.7966 24.4057 60.8824 24.3633C62.4635 24.3021 64.0514 24.3021 65.6325 24.3633C66.7149 24.4057 67.2493 25.0379 67.2595 26.1406C67.2782 27.952 67.2782 29.7634 67.2595 31.5747C67.2476 32.7234 66.6757 33.3181 65.5457 33.3385C64.019 33.3674 62.4907 33.3674 60.9641 33.3385C59.8324 33.3164 59.2826 32.7285 59.2605 31.5713C59.2435 30.6657 59.2571 29.76 59.2571 28.8543V28.856ZM64.7236 30.8424V26.9002H61.7793V30.8424H64.7236Z" fill="#1C1C22"/>
<path id="Vector_8" d="M67.2662 14.2973C67.2662 15.203 67.2815 16.1086 67.2627 17.0143C67.2406 18.1171 66.7147 18.7492 65.634 18.79C64.053 18.8512 62.4651 18.8495 60.884 18.79C59.7982 18.7492 59.2723 18.1273 59.2621 17.0177C59.2434 15.2064 59.2434 13.395 59.2621 11.5836C59.274 10.3959 59.8407 9.83003 61.0474 9.80964C62.5178 9.78416 63.99 9.78416 65.4604 9.80964C66.6943 9.83003 67.2457 10.4146 67.2645 11.6635C67.2764 12.5403 67.2662 13.4188 67.2662 14.2956V14.2973ZM64.7269 12.316H61.7809V16.2684H64.7269V12.316Z" fill="#1C1C22"/>
<path id="Vector_9" d="M59.2566 57.9127C59.2566 57.007 59.2379 56.1013 59.2617 55.1957C59.2907 54.098 59.8523 53.5168 60.9466 53.4964C62.5022 53.4692 64.0594 53.4676 65.6132 53.4998C66.6514 53.5219 67.2386 54.115 67.2539 55.16C67.2828 57.0274 67.2794 58.8966 67.2556 60.764C67.242 61.8039 66.6871 62.4326 65.6473 62.4734C64.0662 62.5329 62.4783 62.5312 60.8956 62.4768C59.808 62.4394 59.2805 61.8192 59.2583 60.7147C59.2396 59.7818 59.2549 58.8473 59.2549 57.9127H59.2566ZM64.7163 59.962V55.9926H61.7925V59.962H64.7163Z" fill="#1C1C22"/>
<path id="Vector_10" d="M57.5687 28.8138C57.5687 29.6906 57.5789 30.5691 57.567 31.4459C57.5466 32.7475 56.9901 33.3269 55.7119 33.3439C54.2687 33.3626 52.8255 33.3626 51.384 33.3439C50.128 33.3269 49.568 32.7798 49.5527 31.5326C49.5306 29.7501 49.5306 27.9659 49.5527 26.1834C49.568 24.9532 50.1416 24.3721 51.384 24.3449C52.8255 24.3143 54.2704 24.3126 55.7119 24.3449C56.9696 24.3721 57.5466 24.994 57.567 26.2667C57.5806 27.1163 57.5687 27.9642 57.5704 28.8138H57.5687ZM55.0226 26.909H52.0698V30.8359H55.0226V26.909Z" fill="#1C1C22"/>
<path id="Vector_11" d="M57.5667 14.309C57.5667 15.1858 57.5803 16.0643 57.5633 16.9411C57.5395 18.1289 56.9813 18.7678 55.8274 18.8018C54.3008 18.8477 52.7707 18.8494 51.2458 18.8001C50.109 18.7627 49.5661 18.1646 49.5507 17.0074C49.5269 15.196 49.5252 13.3847 49.5507 11.5733C49.5678 10.3821 50.1362 9.8316 51.3463 9.81121C52.8167 9.78742 54.2888 9.78572 55.7593 9.81121C56.983 9.8333 57.5395 10.4246 57.5633 11.6753C57.5786 12.552 57.5667 13.4305 57.5667 14.3073V14.309ZM52.0457 16.2699H54.99V12.3159H52.0457V16.2699Z" fill="#1C1C22"/>
</g>
</g>
</g>
<defs>
<clipPath id="clip0_688_6729">
<rect width="82.8675" height="87" fill="white"/>
</clipPath>
</defs>
</svg>
