<svg width="87" height="60" viewBox="0 0 87 60" fill="none" xmlns="http://www.w3.org/2000/svg">
<g id="iconoir:send-mail" clip-path="url(#clip0_521_12655)">
<g id="Group">
<path id="Vector" d="M33.6879 17.9888L51.3495 29.7631L69.0112 17.9888M10.139 35.6503H17.9886M2.28938 23.8759H17.9886" stroke="black" stroke-width="4.46446" stroke-linecap="round" stroke-linejoin="round"/>
<path id="Vector_2" d="M17.9875 12.101V10.1386C17.9875 8.0568 18.8145 6.06023 20.2866 4.58815C21.7587 3.11607 23.7553 2.28906 25.8371 2.28906H76.8597C78.9415 2.28906 80.9381 3.11607 82.4102 4.58815C83.8823 6.06023 84.7093 8.0568 84.7093 10.1386V49.3865C84.7093 51.4683 83.8823 53.4649 82.4102 54.937C80.9381 56.4091 78.9415 57.2361 76.8597 57.2361H25.8371C23.7553 57.2361 21.7587 56.4091 20.2866 54.937C18.8145 53.4649 17.9875 51.4683 17.9875 49.3865V47.4241" stroke="black" stroke-width="4.46446" stroke-linecap="round"/>
</g>
</g>
<defs>
<clipPath id="clip0_521_12655">
<rect width="87" height="59.5259" fill="white"/>
</clipPath>
</defs>
</svg>
