<svg width="25" height="17" viewBox="0 0 25 17" fill="none" xmlns="http://www.w3.org/2000/svg">
<g id="Layer 2">
<g id="menu">
<path id="Vector" d="M23.6745 7.43164H2.20783C1.50827 7.43164 0.941162 7.99875 0.941162 8.69831V8.83164C0.941162 9.5312 1.50827 10.0983 2.20783 10.0983H23.6745C24.3741 10.0983 24.9412 9.5312 24.9412 8.83164V8.69831C24.9412 7.99875 24.3741 7.43164 23.6745 7.43164Z" fill="white"/>
<path id="Vector_2" d="M23.6745 7.43164H2.20783C1.50827 7.43164 0.941162 7.99875 0.941162 8.69831V8.83164C0.941162 9.5312 1.50827 10.0983 2.20783 10.0983H23.6745C24.3741 10.0983 24.9412 9.5312 24.9412 8.83164V8.69831C24.9412 7.99875 24.3741 7.43164 23.6745 7.43164Z" fill="white"/>
<path id="Vector_3" d="M23.6745 14.0986H2.20783C1.50827 14.0986 0.941162 14.6657 0.941162 15.3653V15.4986C0.941162 16.1982 1.50827 16.7653 2.20783 16.7653H23.6745C24.3741 16.7653 24.9412 16.1982 24.9412 15.4986V15.3653C24.9412 14.6657 24.3741 14.0986 23.6745 14.0986Z" fill="white"/>
<path id="Vector_4" d="M23.6745 0.765137H2.20783C1.50827 0.765137 0.941162 1.33224 0.941162 2.0318V2.16514C0.941162 2.8647 1.50827 3.4318 2.20783 3.4318H23.6745C24.3741 3.4318 24.9412 2.8647 24.9412 2.16514V2.0318C24.9412 1.33224 24.3741 0.765137 23.6745 0.765137Z" fill="white"/>
</g>
</g>
</svg>
