<svg width="87" height="69" viewBox="0 0 87 69" fill="none" xmlns="http://www.w3.org/2000/svg">
<g id="Layer_1" clip-path="url(#clip0_688_6721)">
<path id="Vector" d="M0 33.1384C2.80711 30.3086 5.60741 27.472 8.43041 24.6558C8.97731 24.1089 9.7761 24.1543 10.2549 24.6626C10.7247 25.1618 10.7156 25.9288 10.1619 26.4916C8.51437 28.1664 6.84644 29.8229 5.18079 31.4795C4.96293 31.6951 4.71104 31.8744 4.28442 32.2307C4.80182 32.2738 5.03555 32.3078 5.26929 32.3078C11.1014 32.3101 16.9334 32.3192 22.7655 32.2897C23.1626 32.2897 23.6619 32.1013 23.9387 31.8267C33.5061 22.2957 43.0529 12.7465 52.5998 3.19511C52.7519 3.04306 52.8858 2.87287 53.1513 2.57332H52.2731C46.4682 2.57332 40.6657 2.58013 34.8608 2.56198C34.3048 2.56198 33.9191 2.73217 33.531 3.12249C27.3359 9.33807 21.1271 15.54 14.9206 21.7465C13.9697 22.6974 13.3048 22.8449 12.674 22.2526C12.0068 21.6285 12.1452 20.9228 13.1233 19.9447C19.4909 13.5748 25.8631 7.21629 32.2126 0.835047C32.8003 0.245032 33.413 0.00902544 34.239 0.0112947C41.3737 0.0339876 48.5083 0.0249105 55.643 0.0249105C57.2133 0.0249105 57.5719 0.392535 57.5719 1.99011C57.5719 2.88648 57.5719 3.78058 57.5719 4.67695C57.6422 4.72007 57.7103 4.76092 57.7806 4.80403C58.9539 3.60131 60.1702 2.43716 61.2844 1.18225C62.0651 0.301764 62.9319 -0.00912887 64.1074 -5.17162e-05C71.0991 0.0498726 78.093 0.0249105 85.087 0.0249105C86.6233 0.0249105 86.9886 0.387997 86.9886 1.91977C86.9886 5.99541 86.975 10.0733 87.0023 14.149C87.0068 14.8888 86.7821 15.4402 86.2511 15.9462C84.9009 17.2352 83.5847 18.5605 82.3026 20.0786C83.2421 20.0786 84.1815 20.0786 85.121 20.0786C86.6029 20.0809 86.9886 20.4621 86.9886 21.9258C86.9886 26.031 86.9773 30.1361 87 34.239C87.0045 34.9447 86.7844 35.4689 86.2874 35.9659C80.2103 42.0204 74.149 48.0885 68.0832 54.1543C68.0038 54.2337 67.9244 54.3154 67.8427 54.3925C67.171 55.0121 66.4289 55.0461 65.8956 54.481C65.3941 53.9478 65.4349 53.2216 66.0477 52.5998C67.5998 51.0294 69.1657 49.4727 70.7269 47.9092C75.1112 43.5249 79.4909 39.1384 83.8865 34.7655C84.2746 34.3797 84.4607 34.003 84.4539 33.4402C84.4244 30.7511 84.4402 28.062 84.4402 25.3729V24.4878C84.1067 24.7965 83.9001 24.9757 83.7073 25.1686C74.2784 34.5953 64.854 44.0287 55.407 53.4394C54.8782 53.9659 54.6785 54.4856 54.6876 55.214C54.7239 58.0393 54.7012 60.8646 54.7012 63.8555C55.0098 63.5786 55.2163 63.413 55.4024 63.2269C57.447 61.1868 59.4826 59.1399 61.5318 57.1043C62.1717 56.4689 62.8616 56.3918 63.413 56.857C64.0575 57.3993 64.0325 58.1936 63.3109 58.9198C60.9554 61.2889 58.4796 63.5491 56.2625 66.0385C54.7171 67.7745 53.056 68.3963 50.7345 68.3396C44.2557 68.1807 37.77 68.2851 31.2867 68.2829C29.8094 68.2829 29.4213 67.8948 29.4191 66.4288C29.4191 65.5007 29.4191 64.5726 29.4191 63.3993C28.6021 64.214 27.8351 64.8063 27.2882 65.5552C25.6067 67.8608 23.4145 68.6777 20.6051 68.3192C19.1006 68.1263 17.5507 68.2897 16.0234 68.2829C14.9614 68.2783 14.3533 67.8176 14.3396 67.0211C14.326 66.211 14.9183 65.7412 15.9803 65.7367C18.1316 65.7299 20.2829 65.7299 22.4342 65.7254C22.4887 65.7254 22.5431 65.7004 22.6679 65.6686V54.9757C22.4637 54.9531 22.2481 54.9077 22.0325 54.9077C19.938 54.9031 17.8411 54.8918 15.7466 54.919C15.4448 54.9235 15.0613 55.0438 14.8548 55.2481C11.4349 58.6361 8.04009 62.0446 4.63843 65.4508C4.60212 65.4871 4.5885 65.5484 4.49546 65.7322C5.69818 65.7322 6.83737 65.7322 7.97655 65.7322C8.51437 65.7322 9.05219 65.7163 9.59001 65.739C10.4047 65.7708 10.9017 66.2518 10.9085 66.9826C10.9153 67.7065 10.4183 68.2465 9.61725 68.267C8.26021 68.301 6.89864 68.2783 5.5416 68.2806C4.29576 68.2806 3.04992 68.2466 1.80408 68.2919C1.02799 68.3305 0.424357 68.1149 0 67.4546C0 62.6959 0 57.9394 0 53.183C1.56808 51.5809 3.13616 49.981 4.8472 48.236C3.70802 48.236 2.75719 48.2019 1.81089 48.2473C1.0348 48.2836 0.435703 48.0499 0 47.4077C0 42.6512 0 37.8948 0 33.1384ZM82.5522 2.60736C82.2549 2.59148 82.0961 2.57332 81.9372 2.57332C75.9917 2.57332 70.0461 2.56424 64.1006 2.59375C63.7375 2.59375 63.295 2.83202 63.0272 3.09753C59.5076 6.58316 56.0106 10.0937 52.5091 13.5975C51.6876 14.419 50.8775 15.2496 50.0378 16.0506C49.3956 16.6611 48.59 16.6361 48.0953 16.0438C47.6188 15.4742 47.6868 14.8161 48.3404 14.158C50.2534 12.2291 52.1029 10.2254 54.1293 8.42355C55.4546 7.24352 54.8737 5.92052 55.0325 4.4591C54.7874 4.64291 54.7148 4.68376 54.6581 4.74276C44.9887 14.4099 35.3169 24.0748 25.6634 33.7579C25.441 33.9826 25.3048 34.3933 25.3026 34.7201C25.2753 37.4931 25.2844 40.2685 25.289 43.0416C25.289 43.2413 25.3366 43.4409 25.3775 43.7723C26.646 42.4992 27.826 41.3555 28.947 40.1596C29.2035 39.8872 29.3828 39.4379 29.3941 39.0635C29.4418 37.4523 29.444 35.8366 29.4032 34.2231C29.3828 33.4266 29.6346 32.832 30.202 32.2692C34.6634 27.8419 39.0998 23.3918 43.5454 18.9485C43.7247 18.7692 43.8994 18.5741 44.1059 18.4311C44.6664 18.0431 45.2428 18.0567 45.7307 18.531C46.2458 19.0347 46.2595 19.6384 45.8419 20.2193C45.6626 20.4689 45.4221 20.6777 45.202 20.8978C41.6596 24.4402 38.115 27.9826 34.5726 31.5272C34.3661 31.7337 34.1778 31.9583 33.9009 32.2647C34.1868 32.2874 34.3207 32.3055 34.4546 32.3055C40.4274 32.3055 46.4024 32.3169 52.3752 32.2851C52.7337 32.2851 53.1672 32.0264 53.4349 31.7586C62.9365 22.2844 72.4244 12.7942 81.9122 3.3063C82.1029 3.11568 82.2776 2.90918 82.5545 2.60736H82.5522ZM84.438 4.44549C84.1974 4.64972 84.0885 4.73142 83.9955 4.82446C74.3646 14.4508 64.7337 24.0771 55.121 33.7193C54.8805 33.9621 54.7239 34.4001 54.7194 34.7496C54.6876 37.5226 54.6989 40.298 54.7035 43.0711C54.7035 43.273 54.7466 43.4773 54.7716 43.711C54.8737 43.6543 54.9032 43.6452 54.9236 43.627C64.6566 33.9031 74.3896 24.1792 84.1112 14.4462C84.2882 14.2692 84.4221 13.9629 84.4244 13.7155C84.4448 10.6883 84.438 7.66107 84.438 4.44549ZM33.8964 52.2753C34.1414 52.3275 34.2186 52.3593 34.298 52.3593C40.3525 52.3638 46.4092 52.3706 52.4637 52.3479C52.7542 52.3479 53.1104 52.1528 53.3237 51.9394C62.9183 42.3653 72.4992 32.7798 82.0802 23.1944C82.2209 23.0537 82.3275 22.8767 82.5159 22.6293C81.8601 22.6293 81.3472 22.6815 80.8457 22.618C79.9198 22.5022 79.2867 22.8676 78.6354 23.5211C70.7133 31.4863 62.7572 39.4152 54.8283 47.3714C54.2247 47.9773 53.6006 48.2587 52.7383 48.2518C48.0408 48.2201 43.3434 48.2314 38.646 48.2473C38.3306 48.2473 37.9198 48.2927 37.7156 48.4856C36.447 49.6906 35.2262 50.9432 33.8964 52.2753ZM22.6861 45.6399V34.9152C22.5113 34.8925 22.3775 34.863 22.2436 34.863C20.0378 34.8608 17.8321 34.8426 15.6286 34.8812C15.3154 34.8857 14.9455 35.1104 14.7095 35.3441C11.4349 38.5869 8.18079 41.8502 4.92436 45.1089C4.78139 45.2518 4.6702 45.4311 4.50454 45.6422H22.6861V45.6399ZM33.8215 45.6217H52.0893V34.8585C49.6543 34.8585 47.2806 34.8449 44.9092 34.8789C44.6505 34.8835 44.3532 35.1149 44.1467 35.3169C42.4743 36.9644 40.8222 38.6301 39.1611 40.2912C37.4228 42.0272 35.6846 43.7632 33.8192 45.624L33.8215 45.6217ZM52.1188 54.9122C49.8177 54.9122 47.5893 54.9304 45.3608 54.9009C44.8048 54.8941 44.4191 55.0688 44.031 55.4614C40.8654 58.6543 37.6793 61.829 34.5 65.0083C34.3094 65.1989 34.1324 65.4054 33.8737 65.6868H52.1165V54.9145L52.1188 54.9122ZM4.42511 52.2708C4.68608 52.3275 4.76551 52.3593 4.84493 52.3593C10.8994 52.3615 16.9539 52.3683 23.0083 52.3502C23.2806 52.3502 23.6165 52.2027 23.8116 52.0121C25.5908 50.2692 27.3472 48.506 29.0991 46.7382C29.2443 46.5907 29.3896 46.3661 29.3986 46.1709C29.4304 45.3086 29.4123 44.444 29.4123 43.3116C27.9281 44.8071 26.6051 46.1028 25.3275 47.4417C24.7784 48.0181 24.1747 48.2541 23.3759 48.2496C18.6513 48.2246 13.9266 48.2314 9.20197 48.2473C8.88653 48.2473 8.47579 48.2927 8.27156 48.4856C6.99849 49.686 5.77307 50.9341 4.42738 52.2708H4.42511ZM25.2844 63.9349C26.6369 62.5756 27.8215 61.4228 28.9516 60.2201C29.2057 59.9478 29.3828 59.4962 29.3941 59.1217C29.4418 57.4833 29.4372 55.8403 29.4032 54.2019C29.3873 53.4689 29.6074 52.9062 30.1384 52.3956C31.3616 51.2201 32.5484 50.006 33.7443 48.801C33.885 48.6603 33.9917 48.4856 34.1823 48.2382C33.4198 48.2382 32.7958 48.2791 32.1785 48.2269C31.5045 48.1702 31.0234 48.388 30.5492 48.8827C29.0219 50.4735 27.4561 52.0302 25.8699 53.562C25.4206 53.9954 25.2663 54.4402 25.2731 55.0484C25.3026 57.5378 25.2844 60.0249 25.2844 62.5143V63.9394V63.9349ZM32.0106 43.5C34.8654 40.652 37.7655 37.7587 40.6225 34.9084H32.0106V43.5ZM40.6793 54.9689H32.0151V63.6308C34.8949 60.7511 37.7859 57.8623 40.6793 54.9689ZM2.61876 34.9107V43.4954C5.4531 40.6633 8.34191 37.7768 11.2103 34.9107H2.61876ZM2.61195 54.9553V63.3721C5.36006 60.624 8.25113 57.7329 11.0287 54.9553H2.61195Z" fill="#1C1C22"/>
</g>
<defs>
<clipPath id="clip0_688_6721">
<rect width="87" height="68.4054" fill="white"/>
</clipPath>
</defs>
</svg>
