<svg width="88" height="87" viewBox="0 0 88 87" fill="none" xmlns="http://www.w3.org/2000/svg">
<g id="pepicons-pencil:stars">
<g id="Group">
<path id="Vector" fill-rule="evenodd" clip-rule="evenodd" d="M39.9 2.17481C40.3666 2.17407 40.821 2.32336 41.1962 2.60065C41.5714 2.87793 41.8475 3.2685 41.9837 3.71471L50.3705 31.2633L75.4482 40.4287C75.8618 40.5802 76.2196 40.8537 76.4743 41.2129C76.729 41.5722 76.8687 42.0003 76.8748 42.4407C76.881 42.8811 76.7533 43.3129 76.5086 43.6791C76.264 44.0453 75.9139 44.3287 75.5048 44.4916L50.5923 54.3879L41.9837 83.2719C41.8495 83.7202 41.5743 84.1133 41.1989 84.3927C40.8235 84.6722 40.368 84.8231 39.9 84.8231C39.4321 84.8231 38.9766 84.6722 38.6012 84.3927C38.2258 84.1133 37.9506 83.7202 37.8164 83.2719L29.2077 54.3879L4.29529 44.4916C3.88614 44.3287 3.5361 44.0453 3.29146 43.6791C3.04683 43.3129 2.91913 42.8811 2.92526 42.4407C2.93139 42.0003 3.07106 41.5722 3.32579 41.2129C3.58052 40.8537 3.93832 40.5802 4.35184 40.4287L29.4296 31.2633L37.8207 3.71471C37.9568 3.26922 38.2322 2.87916 38.6065 2.60194C38.9808 2.32473 39.4343 2.175 39.9 2.17481ZM39.9 11.8144L33.275 33.5644C33.1768 33.8867 33.005 34.1818 32.7733 34.4264C32.5415 34.671 32.2561 34.8584 31.9395 34.9738L11.2031 42.5602L31.796 50.7382C32.1011 50.8599 32.3747 51.0492 32.5962 51.2918C32.8177 51.5344 32.9813 51.824 33.0749 52.1389L39.9044 75.0373L46.7252 52.1389C46.8188 51.824 46.9824 51.5344 47.2039 51.2918C47.4254 51.0492 47.699 50.8599 48.0041 50.7382L68.597 42.5602L47.8605 34.9825C47.544 34.8671 47.2586 34.6797 47.0268 34.4351C46.7951 34.1905 46.6233 33.8954 46.5251 33.5731L39.9 11.8144Z" fill="black"/>
<path id="Vector_2" d="M73.6126 83.1716C73.1776 83.1716 72.7861 82.8236 72.7426 82.3886C71.9596 74.4716 71.3506 71.9486 64.0861 71.2526C63.6511 71.2091 63.3031 70.8176 63.3031 70.3826C63.3031 69.9476 63.6511 69.5561 64.0861 69.5126C71.5246 68.8166 71.9596 66.9026 72.7426 58.9856C72.7426 58.5506 73.1776 58.2026 73.6126 58.2026C74.0476 58.2026 74.4391 58.5506 74.4826 58.9856C75.2656 66.9026 75.7441 68.8166 83.1391 69.5126C83.5741 69.5561 83.9221 69.9476 83.9221 70.3826C83.9221 70.8176 83.5741 71.2091 83.1391 71.2526C75.8311 71.9486 75.2656 74.4716 74.4826 82.4321C74.4826 82.8671 74.0911 83.2151 73.6126 83.2151V83.1716Z" fill="black"/>
</g>
</g>
</svg>
