<svg width="49" height="48" viewBox="0 0 49 48" fill="none" xmlns="http://www.w3.org/2000/svg">
<g id="ph:phone-call-light">
<path id="Vector" d="M29.4125 7.20939C29.4506 7.06653 29.5165 6.93258 29.6064 6.8152C29.6963 6.69782 29.8084 6.5993 29.9364 6.52529C30.0644 6.45129 30.2057 6.40323 30.3523 6.38388C30.4989 6.36453 30.6478 6.37426 30.7906 6.41251C33.5079 7.1213 35.987 8.54169 37.9727 10.5274C39.9583 12.513 41.3787 14.9922 42.0875 17.7094C42.1258 17.8522 42.1355 18.0012 42.1162 18.1477C42.0968 18.2943 42.0487 18.4356 41.9747 18.5636C41.9007 18.6916 41.8022 18.8038 41.6848 18.8937C41.5675 18.9836 41.4335 19.0494 41.2906 19.0875C41.1958 19.1128 41.0981 19.1254 41 19.125C40.7522 19.1252 40.5112 19.0435 40.3145 18.8926C40.1179 18.7417 39.9766 18.5301 39.9125 18.2906C39.304 15.9566 38.0841 13.8271 36.3785 12.1215C34.673 10.4159 32.5434 9.19603 30.2094 8.58751C30.0665 8.54943 29.9326 8.48355 29.8152 8.39366C29.6978 8.30377 29.5993 8.19162 29.5253 8.06363C29.4513 7.93564 29.4032 7.79431 29.3839 7.64773C29.3645 7.50116 29.3743 7.3522 29.4125 7.20939ZM28.7094 14.5875C31.4375 15.315 33.185 17.0625 33.9125 19.7906C33.9766 20.0301 34.1179 20.2417 34.3145 20.3926C34.5112 20.5435 34.7522 20.6252 35 20.625C35.0981 20.6254 35.1958 20.6128 35.2906 20.5875C35.4335 20.5494 35.5675 20.4836 35.6848 20.3937C35.8022 20.3038 35.9007 20.1916 35.9747 20.0636C36.0487 19.9356 36.0968 19.7943 36.1162 19.6477C36.1355 19.5012 36.1258 19.3522 36.0875 19.2094C35.15 15.7013 32.7988 13.35 29.2906 12.4125C29.1478 12.3743 28.9989 12.3647 28.8524 12.3841C28.7058 12.4035 28.5645 12.4515 28.4365 12.5255C28.1781 12.675 27.9896 12.921 27.9125 13.2094C27.8354 13.4978 27.8761 13.805 28.0255 14.0635C28.175 14.3219 28.421 14.5104 28.7094 14.5875ZM43.6044 32.775C43.2831 35.2261 42.0803 37.4763 40.2207 39.105C38.3611 40.7338 35.972 41.6296 33.5 41.625C18.8188 41.625 6.87502 29.6813 6.87502 15C6.87028 12.5288 7.76531 10.1405 9.3929 8.28099C11.0205 6.42152 13.2694 5.21814 15.7194 4.89564C16.2834 4.8271 16.8544 4.94339 17.3467 5.22705C17.8389 5.51072 18.2259 5.94643 18.4494 6.46876L22.4056 15.3C22.5803 15.6998 22.6526 16.1369 22.6159 16.5716C22.5793 17.0064 22.4348 17.4251 22.1956 17.79C22.1715 17.8272 22.1452 17.8628 22.1169 17.8969L18.1663 22.5956C18.1423 22.6443 18.1298 22.6979 18.1298 22.7522C18.1298 22.8065 18.1423 22.8601 18.1663 22.9088C19.6025 25.8488 22.685 28.9088 25.6663 30.3431C25.716 30.3658 25.7704 30.3766 25.8251 30.3747C25.8798 30.3727 25.9332 30.3581 25.9813 30.3319L30.6106 26.3944C30.6437 26.3656 30.6788 26.3393 30.7156 26.3156C31.0789 26.0734 31.4969 25.9257 31.9317 25.8857C32.3664 25.8458 32.8043 25.9149 33.2056 26.0869L42.0631 30.0563C42.5785 30.2847 43.0067 30.6729 43.2843 31.1636C43.5618 31.6543 43.6741 32.2212 43.6044 32.7806V32.775ZM41.375 32.4975C41.3813 32.4191 41.3628 32.3407 41.3221 32.2734C41.2814 32.2061 41.2205 32.1533 41.1481 32.1225L32.2888 28.1531C32.2404 28.1345 32.1885 28.1265 32.1367 28.1297C32.0849 28.1329 32.0345 28.1473 31.9888 28.1719L27.3613 32.1094C27.3275 32.1375 27.2919 32.1638 27.2563 32.1881C26.8788 32.4398 26.4425 32.5894 25.9901 32.6223C25.5376 32.6551 25.0843 32.5702 24.6744 32.3756C21.2319 30.7125 17.8006 27.3131 16.1375 23.9025C15.9419 23.495 15.8548 23.0439 15.8847 22.5929C15.9146 22.1419 16.0605 21.7062 16.3081 21.3281C16.3323 21.2905 16.3592 21.2548 16.3888 21.2213L20.3375 16.5225C20.3601 16.4734 20.3718 16.42 20.3718 16.366C20.3718 16.3119 20.3601 16.2585 20.3375 16.2094L16.3888 7.37064C16.3627 7.2997 16.3158 7.23829 16.2543 7.19446C16.1927 7.15063 16.1193 7.12643 16.0438 7.12501H16.0006C14.0937 7.37869 12.3442 8.31778 11.0789 9.76694C9.81369 11.2161 9.11915 13.0762 9.12502 15C9.12502 28.44 20.06 39.375 33.5 39.375C35.4241 39.3808 37.2844 38.686 38.7337 37.4204C40.1828 36.1547 41.1218 34.4048 41.375 32.4975Z" fill="#1C1C22"/>
</g>
</svg>
