<svg width="40" height="40" viewBox="0 0 40 40" fill="none" xmlns="http://www.w3.org/2000/svg">
<g id="ph:phone-call-light">
<path id="Vector" d="M24.0938 6.00758C24.1255 5.88853 24.1804 5.77691 24.2553 5.67909C24.3302 5.58127 24.4237 5.49918 24.5303 5.4375C24.637 5.37583 24.7548 5.33578 24.8769 5.31966C24.9991 5.30353 25.1232 5.31164 25.2422 5.34352C27.5066 5.93417 29.5725 7.11783 31.2272 8.77255C32.882 10.4273 34.0656 12.4932 34.6563 14.7576C34.6881 14.8766 34.6963 15.0007 34.6801 15.1229C34.664 15.245 34.624 15.3628 34.5623 15.4694C34.5006 15.5761 34.4185 15.6696 34.3207 15.7445C34.2229 15.8194 34.1113 15.8743 33.9922 15.906C33.9132 15.9271 33.8318 15.9376 33.75 15.9373C33.5435 15.9374 33.3426 15.8693 33.1788 15.7436C33.0149 15.6178 32.8971 15.4415 32.8438 15.242C32.3367 13.2969 31.3201 11.5223 29.8988 10.101C28.4775 8.6797 26.7028 7.66311 24.7578 7.15602C24.6388 7.12428 24.5272 7.06938 24.4293 6.99447C24.3315 6.91956 24.2494 6.82611 24.1877 6.71945C24.1261 6.61279 24.086 6.49501 24.0699 6.37287C24.0538 6.25072 24.0619 6.12659 24.0938 6.00758ZM23.5078 12.156C25.7813 12.7623 27.2375 14.2185 27.8438 16.492C27.8971 16.6915 28.0149 16.8678 28.1788 16.9936C28.3426 17.1193 28.5435 17.1874 28.75 17.1873C28.8318 17.1876 28.9132 17.1771 28.9922 17.156C29.1113 17.1243 29.2229 17.0694 29.3207 16.9945C29.4185 16.9196 29.5006 16.8261 29.5623 16.7194C29.624 16.6128 29.664 16.495 29.6801 16.3729C29.6963 16.2507 29.6881 16.1266 29.6563 16.0076C28.875 13.0841 26.9156 11.1248 23.9922 10.3435C23.8732 10.3117 23.7491 10.3037 23.627 10.3198C23.5048 10.336 23.3871 10.376 23.2805 10.4377C23.0651 10.5622 22.908 10.7672 22.8438 11.0076C22.7795 11.2479 22.8134 11.504 22.9379 11.7193C23.0625 11.9347 23.2675 12.0918 23.5078 12.156ZM35.9203 27.3123C35.6526 29.3548 34.6503 31.23 33.1006 32.5873C31.5509 33.9446 29.56 34.6911 27.5 34.6873C15.2656 34.6873 5.31252 24.7341 5.31252 12.4998C5.30857 10.4405 6.05442 8.45014 7.41075 6.90058C8.76708 5.35102 10.6411 4.34821 12.6828 4.07946C13.1528 4.02234 13.6287 4.11925 14.0389 4.35564C14.4491 4.59202 14.7716 4.95512 14.9578 5.39039L18.2547 12.7498C18.4003 13.0829 18.4605 13.4471 18.4299 13.8094C18.3994 14.1717 18.279 14.5207 18.0797 14.8248C18.0596 14.8557 18.0377 14.8855 18.0141 14.9138L14.7219 18.8295C14.7019 18.87 14.6915 18.9147 14.6915 18.9599C14.6915 19.0052 14.7019 19.0498 14.7219 19.0904C15.9188 21.5404 18.4875 24.0904 20.9719 25.2857C21.0134 25.3046 21.0587 25.3136 21.1042 25.312C21.1498 25.3104 21.1944 25.2982 21.2344 25.2763L25.0922 21.9951C25.1197 21.9711 25.149 21.9492 25.1797 21.9295C25.4824 21.7276 25.8307 21.6045 26.193 21.5712C26.5554 21.5379 26.9203 21.5955 27.2547 21.7388L34.636 25.0466C35.0654 25.237 35.4222 25.5605 35.6535 25.9694C35.8849 26.3783 35.9784 26.8508 35.9203 27.317V27.3123ZM34.0625 27.081C34.0678 27.0157 34.0523 26.9504 34.0184 26.8943C33.9845 26.8382 33.9338 26.7942 33.8735 26.7685L26.4906 23.4607C26.4503 23.4451 26.4071 23.4385 26.3639 23.4412C26.3208 23.4439 26.2787 23.4559 26.2406 23.4763L22.3844 26.7576C22.3563 26.781 22.3266 26.8029 22.2969 26.8232C21.9823 27.033 21.6188 27.1576 21.2417 27.185C20.8646 27.2124 20.4869 27.1416 20.1453 26.9795C17.2766 25.5935 14.4172 22.7607 13.0313 19.9185C12.8683 19.5789 12.7957 19.203 12.8206 18.8272C12.8455 18.4513 12.9671 18.0883 13.1735 17.7732C13.1936 17.7419 13.216 17.7121 13.2406 17.6841L16.5313 13.7685C16.5501 13.7276 16.5598 13.6831 16.5598 13.6381C16.5598 13.593 16.5501 13.5485 16.5313 13.5076L13.2406 6.14196C13.2189 6.08284 13.1799 6.03167 13.1286 5.99514C13.0772 5.95862 13.0161 5.93844 12.9531 5.93727H12.9172C11.3281 6.14866 9.87017 6.93124 8.81579 8.13887C7.76141 9.34651 7.18263 10.8966 7.18752 12.4998C7.18752 23.6998 16.3 32.8123 27.5 32.8123C29.1034 32.8171 30.6537 32.2381 31.8614 31.1834C33.069 30.1287 33.8515 28.6705 34.0625 27.081Z" fill="white"/>
</g>
</svg>
