<svg width="32" height="40" viewBox="0 0 32 40" fill="none" xmlns="http://www.w3.org/2000/svg">
<g id="Pin">
<path id="Vector" d="M16.554 1.18311e-05C11.276 0.00801183 7.054 4.79601 7.054 10.222C7.054 14.096 9.254 17.626 11.474 20.266C9.238 20.55 7.29 21.008 5.832 21.618C5.004 21.964 4.326 22.354 3.828 22.812C3.33 23.272 3 23.83 3 24.45C3 25.222 3.5 25.88 4.226 26.41C4.954 26.94 5.95 27.382 7.16 27.754C9.58 28.498 12.868 28.95 16.5 28.95C20.132 28.95 23.42 28.498 25.84 27.754C27.05 27.382 28.046 26.94 28.774 26.41C29.502 25.88 30 25.222 30 24.45C30 23.83 29.67 23.274 29.176 22.816C28.68 22.36 28.004 21.968 27.18 21.622C25.734 21.014 23.8 20.56 21.582 20.274C23.838 17.518 26.054 13.74 26.054 9.46801C26.054 4.04201 21.78 -0.00798817 16.554 1.18311e-05ZM16.554 1.00001C21.266 0.992012 25.054 4.56201 25.054 9.46801C25.054 17.192 17.096 23.384 16.55 23.804C16.28 23.6 14.494 22.276 12.434 19.878C10.222 17.306 8.054 13.824 8.054 10.222C8.054 5.31601 11.886 1.00801 16.554 1.00001ZM16.414 5.70001C15.4875 5.73902 14.6141 6.14352 13.9851 6.82498C13.3562 7.50643 13.0228 8.40932 13.058 9.33601C13.097 10.2629 13.5018 11.1366 14.1837 11.7656C14.8656 12.3946 15.769 12.7278 16.696 12.692C17.6225 12.6525 18.4957 12.2475 19.1243 11.5657C19.7529 10.8838 20.0858 9.98071 20.05 9.05401C20.0105 8.12783 19.6058 7.255 18.9244 6.62645C18.243 5.9979 17.3404 5.6648 16.414 5.70001ZM16.454 6.69601C16.7823 6.68208 17.1102 6.73312 17.4187 6.8462C17.7273 6.95929 18.0105 7.13219 18.2521 7.35499C18.4936 7.5778 18.6888 7.84611 18.8264 8.14453C18.9641 8.44296 19.0414 8.76562 19.054 9.09401C19.0682 9.42231 19.0173 9.75017 18.9043 10.0587C18.7913 10.3673 18.6184 10.6504 18.3955 10.8919C18.1726 11.1334 17.9042 11.3284 17.6057 11.4657C17.3071 11.603 16.9844 11.6799 16.656 11.692C16.328 11.7062 16.0004 11.6554 15.692 11.5425C15.3837 11.4296 15.1008 11.2568 14.8595 11.0341C14.6182 10.8114 14.4234 10.5432 14.2862 10.2449C14.149 9.94662 14.0721 9.62413 14.06 9.29601C14.0455 8.96771 14.0961 8.6398 14.2089 8.33113C14.3217 8.02247 14.4944 7.73916 14.717 7.4975C14.9397 7.25585 15.208 7.06063 15.5065 6.92307C15.8049 6.78552 16.1276 6.70835 16.456 6.69601H16.454ZM12.274 21.172C14.344 23.436 16.258 24.892 16.258 24.892L16.554 25.112L16.852 24.892C16.852 24.892 18.732 23.476 20.786 21.18C23.23 21.446 25.334 21.934 26.792 22.546C27.548 22.864 28.13 23.212 28.496 23.55C28.862 23.89 29 24.182 29 24.45C29 24.782 28.772 25.174 28.184 25.602C27.596 26.03 26.688 26.45 25.546 26.802C23.262 27.502 20.048 27.95 16.5 27.95C12.952 27.95 9.738 27.504 7.454 26.8C6.312 26.45 5.404 26.03 4.816 25.6C4.228 25.174 4 24.782 4 24.45C4 24.182 4.136 23.886 4.504 23.546C4.872 23.206 5.456 22.856 6.214 22.54C7.686 21.924 9.81 21.438 12.274 21.172Z" fill="white"/>
</g>
</svg>
