<svg width="84" height="84" viewBox="0 0 84 84" fill="none" xmlns="http://www.w3.org/2000/svg">
<g id="Play" clip-path="url(#clip0_912_3863)">
<path id="Vector" d="M34.125 27.5624V56.4374L36.4993 57.469L55.125 43.0315V40.9683L36.4993 26.5308L34.125 27.5624ZM36.75 30.2635L51.6876 41.9999L36.75 53.7363V30.2635Z" fill="#FCEE50"/>
<path id="Vector_2" d="M42 0C30.7821 0 20.2348 4.37063 12.3034 12.3047C4.36931 20.2348 0 30.7821 0 42C0 53.2179 4.36931 63.7652 12.3034 71.6966C20.2348 79.6307 30.7821 84 42 84C53.2179 84 63.7652 79.6294 71.6979 71.6953C79.6307 63.7652 84 53.2179 84 42C84 30.7821 79.6307 20.2348 71.6966 12.3034C63.7652 4.36931 53.2179 0 42 0ZM69.8421 69.8408C62.4041 77.2787 52.5171 81.375 42 81.375C31.4829 81.375 21.5959 77.2787 14.1593 69.8394C6.72131 62.4041 2.625 52.5171 2.625 42C2.625 31.4829 6.72131 21.5959 14.1593 14.1593C21.5959 6.72131 31.4829 2.625 42 2.625C52.5171 2.625 62.4041 6.72262 69.8421 14.1606C77.28 21.5959 81.375 31.4829 81.375 42C81.375 52.5171 77.28 62.4041 69.8421 69.8408Z" fill="white"/>
</g>
<defs>
<clipPath id="clip0_912_3863">
<rect width="84" height="84" fill="white"/>
</clipPath>
</defs>
</svg>
