<svg width="30" height="21" viewBox="0 0 30 21" fill="none" xmlns="http://www.w3.org/2000/svg">
<g id="Group">
<path id="Vector" fill-rule="evenodd" clip-rule="evenodd" d="M0 0.901367H30V20.9014H0V0.901367Z" fill="#199D00"/>
<path id="Vector_2" fill-rule="evenodd" clip-rule="evenodd" d="M7.56103 6.57096C7.52877 7.0387 7.48441 7.86128 7.88361 7.94596C8.36344 7.99032 8.09732 7.13144 8.2707 6.97822C8.30699 6.89757 8.36748 6.89757 8.37151 6.99838V7.72419C8.36748 7.96612 8.5207 8.03064 8.64167 8.08306C8.7707 8.07096 8.85135 8.07499 8.90377 8.19596L8.96022 9.45806C8.96022 9.45806 9.25457 9.5387 9.26667 8.74838C9.2828 8.28467 9.17393 7.89354 9.23844 7.80483C9.23844 7.71612 9.35135 7.71209 9.43199 7.75241C9.55699 7.84112 9.61344 7.95403 9.80699 7.90564C10.1054 7.82499 10.2828 7.67983 10.2909 7.45403C10.2806 7.23163 10.2343 7.01238 10.1538 6.80483C10.1659 6.76451 10.0933 6.6637 10.1094 6.62338C10.1618 6.70403 10.2425 6.69999 10.2626 6.62338C10.2102 6.45403 10.1336 6.29677 10.0046 6.22822C9.89974 6.13548 9.74651 6.15564 9.69006 6.34919C9.68345 6.60336 9.76943 6.85127 9.93199 7.04677C9.9827 7.15634 10.0036 7.27735 9.99248 7.39757C9.9078 7.44999 9.82312 7.4258 9.75054 7.35322C9.75054 7.35322 9.51264 7.17177 9.51264 7.13548C9.57715 6.73225 9.52877 6.6879 9.49248 6.57499C9.46828 6.42177 9.3957 6.37338 9.33522 6.26854C9.27473 6.20403 9.19812 6.20403 9.1578 6.26854C9.05296 6.44999 9.10135 6.83709 9.17796 7.01048C9.23441 7.17177 9.31506 7.27257 9.27473 7.27257C9.24248 7.36128 9.17796 7.34112 9.12957 7.23628C9.06973 7.01419 9.04123 6.78482 9.0449 6.55483C9.02473 6.37338 9.00457 5.99032 8.88361 5.89354C8.81103 5.79677 8.70215 5.84515 8.66586 5.93386C8.65567 6.10863 8.65971 6.28394 8.67796 6.45806C8.75861 6.74032 8.7828 6.99838 8.82312 7.29273C8.83522 7.6879 8.59328 7.46612 8.60538 7.26854C8.66183 7.01451 8.6457 6.61128 8.59732 6.51048C8.55699 6.40967 8.51264 6.38548 8.4199 6.40161C8.33925 6.39354 8.14973 6.60322 8.09732 6.95806C8.09732 6.95806 8.04893 7.13951 8.02877 7.29677C8.00054 7.47822 7.88361 7.60725 7.79893 7.27257C7.72635 7.03064 7.68199 6.42983 7.56103 6.57096Z" fill="white"/>
<path id="Vector_3" fill-rule="evenodd" clip-rule="evenodd" d="M8.86719 8.49031L7.61719 9.09112C7.62928 8.80886 8.20993 8.29273 8.60509 8.28467C8.86316 8.29273 8.79864 8.38547 8.86719 8.48628V8.49031Z" fill="white"/>
<path id="Vector_4" fill-rule="evenodd" clip-rule="evenodd" d="M8.64832 8.88107C7.98703 10.5787 10.1886 10.8166 10.4346 8.94962C10.4588 8.87301 10.5556 8.7964 10.5677 8.9214C10.5153 10.6149 8.86606 10.7278 8.58381 10.1956C8.51526 10.0746 8.4951 9.79237 8.48703 9.62301C8.44671 9.29237 8.26929 9.4214 8.2451 9.75204C8.21687 9.93349 8.2209 9.98591 8.2209 10.1633C8.30961 11.494 10.4386 10.9214 10.7854 9.82059C10.9669 9.21172 10.7532 8.76011 10.854 8.76011C11.0636 8.98995 11.362 8.79236 11.4265 8.71172C11.4548 8.6714 11.5233 8.6472 11.5717 8.69962C11.733 8.82059 12.0274 8.76011 12.0878 8.55446C12.1201 8.34882 12.1483 8.13914 12.1564 7.9214C12.0233 7.96172 11.9225 7.98995 11.9145 8.04237L11.8862 8.22785C11.8741 8.2843 11.7572 8.28833 11.7532 8.21172C11.7007 7.98188 11.4911 7.94962 11.362 8.30849C11.2774 8.38107 11.1201 8.38914 11.104 8.28833C11.1241 8.0464 11.0274 8.01414 10.8338 8.12704L10.6443 6.71575C10.7249 6.71575 10.8015 6.7722 10.8741 6.67946C10.7935 6.42543 10.6201 5.91333 10.5274 5.87301C10.479 5.81656 10.4427 5.85285 10.3822 5.86495C10.2774 5.8972 10.1806 5.98591 10.2128 6.1593L10.5354 8.18349C10.5515 8.26817 10.479 8.38511 10.3862 8.37301C10.229 8.26414 10.1886 8.05043 9.92252 8.05849C9.72494 8.05849 9.50316 8.2722 9.47897 8.47785C9.44268 8.63914 9.43058 8.81656 9.47897 8.95769C9.61203 9.11898 9.77735 9.10688 9.92252 9.06656C10.0395 9.01817 10.1362 8.90124 10.1806 8.92946C10.2088 8.96575 10.1846 9.35285 9.6201 9.65527C9.28139 9.80849 9.00719 9.84075 8.86203 9.56253C8.77332 9.38914 8.8701 8.72785 8.64832 8.87704V8.88107Z" fill="white"/>
<path id="Vector_5" fill-rule="evenodd" clip-rule="evenodd" d="M11.4426 7.15118C11.5757 7.10683 12.2007 6.38506 12.2007 6.38506L12.108 6.31247C12.0717 6.28022 12.0757 6.25199 12.108 6.21973C12.2612 6.13102 12.2128 5.92941 12.1322 5.8407C12.0796 5.81443 12.0216 5.80076 11.9628 5.80076C11.904 5.80076 11.846 5.81443 11.7935 5.8407C11.6846 5.94957 11.6604 6.11489 11.7451 6.21973C11.8257 6.26006 11.9144 6.3407 11.858 6.38909C11.5999 6.66328 10.8983 7.13506 10.9789 7.15522C10.9951 7.17538 11.4305 7.17538 11.4426 7.15522V7.15118ZM7.65635 9.69151C7.42248 10.0665 7.40232 10.627 7.53539 10.7923C7.5999 10.873 7.71281 10.9052 7.79748 10.881C7.94668 10.8165 8.01119 10.5181 7.9749 10.4092C7.92652 10.3286 7.88619 10.3205 7.83781 10.3851C7.73297 10.5947 7.68861 10.4496 7.68055 10.3326C7.66442 10.1109 7.68458 9.90118 7.70877 9.73989C7.737 9.57457 7.70877 9.62296 7.65635 9.69151ZM17.7007 9.08667C17.4749 8.59876 17.1604 8.11489 17.0596 7.92941C16.7555 7.44787 16.4327 6.97843 16.0918 6.52215C15.8499 6.23183 16.491 6.64312 16.0112 6.06651C15.8297 5.90522 15.8176 5.90118 15.6644 5.77215C15.5878 5.7157 15.4023 5.61893 15.3701 5.78022C15.354 5.89581 15.3595 6.01338 15.3862 6.12699C15.4023 6.20764 15.5193 6.3407 15.5797 6.42135C16.3459 7.44957 17.0273 8.49393 17.6805 9.80038C17.7854 9.75199 17.7612 9.17135 17.7007 9.08667Z" fill="white"/>
<path id="Vector_6" fill-rule="evenodd" clip-rule="evenodd" d="M16.705 10.728C16.6606 10.7804 16.8138 10.9941 17.0154 10.9941C17.3542 10.9538 17.6485 10.7643 17.9227 10.2683C17.9953 10.1473 18.1243 9.9054 18.1283 9.70782C18.1566 8.57879 18.0719 7.69976 17.9025 6.88524C17.8945 6.80459 17.9025 6.70782 17.9146 6.68363C17.9348 6.65943 18.0074 6.68363 18.0477 6.62314C18.1042 6.56266 17.8945 6.07476 17.7775 5.88927C17.7332 5.80459 17.7171 5.74814 17.6485 5.89734C17.5719 6.0183 17.5275 6.23201 17.5275 6.42959C17.6888 7.5425 17.7413 8.5183 17.8461 9.62717C17.8542 9.73605 17.838 9.8933 17.7654 9.95379C17.4705 10.2838 17.1091 10.5476 16.705 10.728ZM21.2533 10.7239C21.0114 10.861 21.0114 11.0223 21.209 11.0304C21.5437 10.9901 21.9429 10.9619 22.2171 10.5465C22.2896 10.4296 22.3783 10.1151 22.3824 9.92556C22.4066 8.79653 22.3663 7.94976 22.1969 7.13524C22.1888 7.05459 22.1525 6.87314 22.1646 6.84895C22.1888 6.7925 22.2977 6.85298 22.338 6.78847C22.3945 6.73201 22.0558 6.2925 21.9348 6.10298C21.8904 6.02234 21.8743 5.96589 21.8058 6.11508C21.7292 6.23605 21.705 6.45379 21.7332 6.6433C21.9146 7.85298 22.0477 8.76024 22.0719 9.82879C22.0598 9.93363 22.0558 9.99008 22.0074 10.1151C21.9025 10.2522 21.7856 10.4215 21.6727 10.5022C21.5638 10.5828 21.33 10.6635 21.2533 10.7239Z" fill="white"/>
<path id="Vector_7" fill-rule="evenodd" clip-rule="evenodd" d="M21.4357 9.63913V8.90123C21.4326 8.71736 21.3914 8.53613 21.3148 8.36897C21.2422 8.20768 21.2866 8.08268 21.2543 7.9093C21.222 7.73994 21.2301 7.48188 21.1817 7.28026C21.1656 7.19962 21.1253 6.94962 21.1414 6.92543C21.1575 6.86897 21.2341 6.92543 21.2704 6.86091C21.3269 6.80043 21.0769 6.15526 20.9519 5.97381C20.9075 5.89317 20.8269 5.91736 20.722 6.05446C20.6293 6.13914 20.6656 6.34075 20.7019 6.53026C20.9438 7.79236 21.1212 8.93752 21.0849 10.1351C21.0728 10.2399 21.4398 9.83268 21.4357 9.63913ZM19.6495 8.07462C19.5003 8.07462 19.1817 7.77623 19.0849 7.60688C19.071 7.56605 19.0656 7.52279 19.069 7.47978C19.0725 7.43677 19.0848 7.39494 19.1051 7.35688C19.1616 7.31655 19.2503 7.27623 19.3148 7.31655C19.3148 7.31655 19.3793 7.41333 19.3672 7.42543C19.4478 7.46575 19.4882 7.44155 19.4962 7.40526C19.5003 7.34881 19.468 7.31252 19.468 7.24397C19.5083 7.07059 19.7099 7.04236 19.7825 7.15526C19.839 7.22381 19.8591 7.36897 19.8672 7.46978C19.8672 7.51817 19.7866 7.45768 19.7382 7.46978C19.6938 7.48591 19.6817 7.53833 19.6777 7.58672C19.6696 7.71575 19.6535 7.92139 19.6495 8.07059V8.07462ZM16.843 9.95365C16.8833 9.56655 16.8309 8.8851 16.8269 8.6593C16.8107 8.12301 16.722 7.08672 16.6817 6.91736C16.6333 6.59075 16.8148 6.95365 16.7906 6.76414C16.7301 6.44155 16.5486 6.21575 16.339 5.91736C16.2704 5.82462 16.2745 5.80446 16.1656 5.94155C16.0527 6.20768 16.1535 6.38914 16.1817 6.59478C16.3349 7.26817 16.4236 7.8851 16.464 8.49801C16.5092 9.13549 16.5145 9.77517 16.4801 10.4133C16.597 10.4214 16.7825 10.2278 16.843 9.95365Z" fill="white"/>
<path id="Vector_8" fill-rule="evenodd" clip-rule="evenodd" d="M21.9558 9.33686C21.6856 8.88928 21.2824 8.40138 21.1735 8.21993C20.8125 7.71308 20.4332 7.21948 20.0364 6.74009C19.7018 6.38928 20.1897 6.68364 19.9719 6.41348C19.7864 6.21186 19.73 6.14735 19.5768 6.02638C19.4961 5.97396 19.4477 5.87719 19.4235 6.04251C19.4114 6.18767 19.4034 6.35702 19.4114 6.48202C19.4114 6.55057 19.484 6.67557 19.5445 6.75219C20.351 7.74815 21.2381 8.76831 21.9518 10.0465C22.0526 9.99009 22.0203 9.41751 21.9518 9.33686H21.9558Z" fill="white"/>
<path id="Vector_9" fill-rule="evenodd" clip-rule="evenodd" d="M9.79013 8.50621C9.76997 8.5425 9.72561 8.58686 9.74174 8.62718C9.774 8.6675 9.79819 8.6796 9.84658 8.68363C9.8869 8.68363 9.95142 8.6917 9.96352 8.6675C9.97805 8.64973 9.98758 8.62841 9.99113 8.60573C9.99467 8.58305 9.9921 8.55983 9.98368 8.53847C9.94336 8.42557 9.81432 8.46589 9.79013 8.50621Z" fill="#1BA400"/>
<path id="Vector_10" fill-rule="evenodd" clip-rule="evenodd" d="M18.8383 15.0668C19.1972 15.0789 19.4311 15.083 19.7496 15.1193L20.1206 15.0789C20.5359 15.0386 20.5561 15.6717 20.5561 15.6717C20.552 16.0426 20.4069 16.0588 20.2254 16.0991C20.1206 16.1152 20.0641 16.0386 20.0117 15.958C19.9432 15.9862 19.8504 15.9902 19.7335 15.9741C19.5843 15.966 19.4351 15.966 19.2899 15.9539C19.1287 15.9418 19.044 15.9741 18.8867 15.958C18.8504 16.0104 18.8061 16.0789 18.7133 16.0588C18.6327 16.0507 18.5359 15.8209 18.5641 15.6515C18.6206 15.5265 18.6045 15.5668 18.6004 15.5104C17.1327 15.4741 15.6569 15.4096 14.2174 15.4297C13.0883 15.4297 11.9795 15.4781 10.8706 15.5265C10.2778 15.5185 9.8222 15.4217 9.51172 14.962C9.53994 14.962 11.0238 15.0507 11.4553 15.0225C12.2617 15.0104 12.9916 14.9459 13.8101 14.9217C15.423 14.9499 17.0158 14.9499 18.6287 15.0628C18.4754 14.958 18.4674 14.708 18.7093 14.6475C18.7254 14.6354 18.7375 14.7684 18.7738 14.7684C18.9593 14.7564 18.8787 15.0104 18.8383 15.0668ZM12.3706 6.18377C12.1287 6.88135 12.5077 7.64345 12.7738 7.57087C12.9674 7.65152 13.0883 7.28458 13.169 6.88539C13.2214 6.77248 13.2617 6.76039 13.2899 6.81684C13.2819 7.3491 13.3303 7.46603 13.4674 7.62732C13.5463 7.69774 13.6477 7.73766 13.7534 7.73988C13.8592 7.7421 13.9622 7.70647 14.044 7.63942L14.2819 7.39748C14.3343 7.34506 14.4028 7.34103 14.4795 7.38942C14.552 7.45797 14.5399 7.57087 14.6972 7.65152C14.8262 7.70393 15.1085 7.66361 15.173 7.55071C15.2577 7.40151 15.2819 7.3491 15.3222 7.29264C15.3827 7.212 15.4875 7.24426 15.4875 7.27248C15.4795 7.31684 15.419 7.36522 15.4593 7.44587C15.5319 7.50232 15.552 7.46603 15.5964 7.45393C15.7496 7.38135 15.8666 7.04264 15.8666 7.04264C15.8706 6.92168 15.802 6.92974 15.7577 6.95393L15.6367 7.03861C15.5561 7.05071 15.4109 7.0991 15.3383 6.98619C15.2658 6.85313 15.2617 6.66361 15.2053 6.52652C15.2053 6.51845 15.1085 6.31281 15.2012 6.30071C15.2456 6.30877 15.3464 6.33297 15.3625 6.25232C15.4109 6.17168 15.2577 5.94184 15.1528 5.8249C15.0641 5.72813 14.9351 5.71603 14.8141 5.81684C14.7335 5.89748 14.7416 5.97813 14.7254 6.06281C14.7115 6.12164 14.7115 6.18292 14.7255 6.24174C14.7395 6.30056 14.7671 6.35528 14.8061 6.40151C14.8908 6.56684 15.048 6.78055 14.9956 7.087C14.9956 7.087 14.9028 7.22813 14.7456 7.20797C14.6811 7.19184 14.5762 7.16764 14.5198 6.74829C14.4795 6.42974 14.5278 5.98619 14.3948 5.78055C14.3464 5.65152 14.3141 5.53055 14.1932 5.74829C14.1609 5.82893 14.0238 5.95797 14.1206 6.2241C14.2128 6.45846 14.2407 6.71324 14.2012 6.962C14.1448 7.04668 14.1327 7.07893 14.0561 7.16361C13.9553 7.27248 13.8424 7.24426 13.7577 7.20393C13.677 7.15152 13.6125 7.12329 13.5762 6.9499C13.5843 6.67571 13.5964 6.22813 13.548 6.13135C13.4754 5.98619 13.3545 6.03861 13.302 6.08297C13.0681 6.34244 12.9116 6.66236 12.8504 7.00635C12.7819 7.22813 12.7093 7.16764 12.6569 7.0749C12.5319 6.95393 12.5238 6.03055 12.3706 6.18377Z" fill="white"/>
<path id="Vector_11" fill-rule="evenodd" clip-rule="evenodd" d="M13.1043 7.70369C13.2172 7.62305 13.1648 7.57063 13.3301 7.73595C13.5429 8.1101 13.6671 8.52808 13.6931 8.95773C13.681 9.05853 13.7535 9.11902 13.7858 9.09886C13.8019 8.86498 14.3785 8.53434 14.9027 8.48595C14.9834 8.46982 14.943 8.3166 14.9551 8.23595C14.9229 7.94563 15.1164 7.6795 15.3947 7.65934C15.7656 7.71579 15.8906 7.91337 15.8987 8.21579C15.8584 8.80047 15.2495 8.90127 14.9068 8.9416C14.8543 8.96579 14.8342 8.98998 14.9068 9.01821L16.3382 9.02224L16.4108 9.06257C16.4189 9.10289 16.3906 9.07063 16.3301 9.16337C16.2697 9.25611 16.1931 9.47386 16.189 9.61498C15.7599 9.74025 15.3197 9.82397 14.8745 9.86498C14.7213 9.94563 14.6447 10.0505 14.6729 10.1674C14.7253 10.3005 15.0721 10.4295 15.0721 10.4376C15.1366 10.4779 15.2132 10.5747 15.0519 10.7682C14.3543 10.74 13.814 10.4416 13.6285 10.0222C13.5721 9.98192 13.5076 10.0222 13.4713 10.0787C13.2285 10.4519 12.8785 10.7429 12.4672 10.9134C12.189 10.9819 11.9068 10.873 11.7737 10.6916C11.685 10.5868 11.689 10.4739 11.6527 10.4497C11.5035 10.5142 10.2172 11.0626 10.3826 10.8085C10.693 10.4698 11.2374 10.2239 11.7132 9.89321C11.7535 9.78434 11.814 9.40934 12.0035 9.28837C12.0116 9.28837 11.9713 9.50611 11.9753 9.59886C11.9753 9.67547 11.9713 9.70369 11.9874 9.68353C12.0197 9.66337 12.6003 9.20773 12.6447 9.0666C12.7011 8.98595 12.6608 8.78434 12.6608 8.77628C12.556 8.49402 12.4027 8.47386 12.3463 8.33273C12.2939 8.14724 12.3181 7.93757 12.4229 7.87708C12.5156 7.7924 12.6245 7.80047 12.7293 7.89321C12.8503 7.99805 12.9511 8.20369 12.9834 8.35692C12.9632 8.4174 12.8301 8.3166 12.7818 8.34886C12.8624 8.4295 12.9027 8.53031 12.931 8.65127C13.0116 8.97386 12.9834 9.09482 12.9108 9.3045C12.6527 9.84482 12.3221 10.0101 12.0318 10.2077C12.0237 10.2118 12.0197 10.3489 12.1285 10.4214C12.1689 10.4618 12.318 10.4779 12.4914 10.4214C12.8686 10.2132 13.1737 9.89544 13.3664 9.51015C13.4189 9.21982 13.3463 8.91337 13.2697 8.64724C13.1818 8.43498 13.1011 8.2198 13.0277 8.00208C13.0197 7.84079 13.0318 7.78434 13.1084 7.70369H13.1043ZM9.3624 6.19563C9.52369 6.27224 9.83418 6.23595 9.82208 5.97386L9.81402 5.84886C9.78176 5.76821 9.68902 5.78837 9.66886 5.87305C9.66079 5.89724 9.68095 5.9416 9.65676 5.95369C9.64063 5.96579 9.58821 5.95773 9.59224 5.88515C9.59224 5.86095 9.57611 5.83676 9.56402 5.82063C9.55192 5.8166 9.54789 5.81257 9.52773 5.81257C9.50353 5.81257 9.50757 5.82063 9.49144 5.84079L9.47934 5.90128C9.47934 5.9295 9.46724 5.93757 9.44708 5.9416C9.42692 5.9416 9.43095 5.9416 9.41482 5.93353C9.40273 5.92144 9.39063 5.9174 9.39063 5.89724L9.38257 5.83273C9.37183 5.82084 9.35779 5.81241 9.34224 5.80853C9.2495 5.80853 9.24547 5.91337 9.2495 5.95369C9.24144 5.95773 9.2374 6.14321 9.3624 6.19563Z" fill="white"/>
<path id="Vector_12" fill-rule="evenodd" clip-rule="evenodd" d="M14.1847 8.23603C14.346 8.31668 14.7411 8.26829 14.6443 8.01426L14.6363 7.89329C14.604 7.81265 14.5153 7.83281 14.4911 7.91345C14.4871 7.93765 14.5032 7.982 14.479 7.9941C14.4669 8.01023 14.4145 8.00216 14.4145 7.92958C14.4145 7.90539 14.3984 7.8812 14.3863 7.86507C14.3782 7.857 14.3701 7.857 14.35 7.857C14.3298 7.857 14.3298 7.86103 14.3177 7.8812L14.3056 7.94168C14.3016 7.96991 14.2895 7.982 14.2734 7.982C14.2492 7.982 14.2572 7.982 14.2371 7.97394C14.229 7.96184 14.2129 7.95781 14.2129 7.93765C14.2129 7.91749 14.2129 7.88523 14.2048 7.87313C14.1968 7.86103 14.1806 7.857 14.1645 7.85297C14.0758 7.85297 14.0677 7.95378 14.0718 7.9941C14.0677 8.00216 14.0637 8.18361 14.1847 8.23603ZM16.9992 7.38926C17.1605 7.46991 17.471 7.43362 17.4589 7.17152L17.4508 7.04652C17.4185 6.96587 17.3258 6.98603 17.3056 7.06668C17.2976 7.09491 17.3177 7.13523 17.2935 7.14732C17.2774 7.16345 17.225 7.15539 17.229 7.08281C17.229 7.05862 17.2089 7.03442 17.2008 7.01829C17.1887 7.01426 17.1847 7.01023 17.1605 7.01023C17.1403 7.01023 17.1403 7.01829 17.1282 7.03845L17.1161 7.09894C17.1161 7.12313 17.104 7.13523 17.0839 7.13926C17.0637 7.13926 17.0677 7.13926 17.0516 7.12716C17.0395 7.1191 17.0274 7.11103 17.0274 7.09491C17.0274 7.07474 17.0234 7.04249 17.0153 7.02636C17.0072 7.01426 16.9951 7.01023 16.975 7.0062C16.8863 7.0062 16.8822 7.11103 16.8863 7.14732C16.8782 7.15539 16.8742 7.34087 16.9992 7.38926ZM18.4508 9.51426C18.1685 9.83684 18.2935 10.3691 18.3581 10.482C18.4548 10.6756 18.5274 10.7965 18.7129 10.8893C18.8822 11.0102 19.0113 10.9336 19.0839 10.8489C19.2532 10.6756 19.2532 10.228 19.3339 10.1393C19.3903 9.97797 19.5274 10.0062 19.596 10.0788C19.6582 10.1664 19.7414 10.2371 19.8379 10.2844C19.9951 10.4215 20.1806 10.4457 20.3661 10.3247C20.4911 10.2522 20.5758 10.1594 20.6484 9.97797C20.729 9.7562 20.6887 8.74007 20.6685 8.13926C20.6645 8.09087 20.5072 7.30861 20.5072 7.30055C20.5072 7.29249 20.4831 6.90136 20.4669 6.80862C20.4669 6.77232 20.4548 6.76023 20.4951 6.76829C20.5355 6.80055 20.5435 6.80458 20.5677 6.81668C20.6081 6.82474 20.6484 6.75216 20.6242 6.68361L20.229 5.95781C20.2008 5.92958 20.1605 5.89732 20.1081 5.96991C20.0775 5.99651 20.0531 6.02936 20.0364 6.06623C20.0197 6.1031 20.0111 6.14314 20.0113 6.18362C20.0234 6.357 20.0516 6.53039 20.0637 6.70378L20.225 7.58281C20.2734 8.21184 20.2855 8.72394 20.3339 9.357C20.3258 9.6191 20.2451 9.85297 20.1645 9.8812C20.1645 9.8812 20.0476 9.95378 19.971 9.8812C19.9105 9.85297 19.6806 9.4941 19.6806 9.4941C19.5597 9.38523 19.4871 9.41345 19.3984 9.4941C19.1726 9.71587 19.0677 10.1352 18.9105 10.4215C18.8701 10.486 18.7532 10.5425 18.6282 10.4175C18.3056 9.97394 18.4951 9.35297 18.4548 9.51426H18.4508ZM17.0718 5.84894C17.221 5.90942 17.3218 6.21184 17.2895 6.357C17.2613 6.53442 17.1806 6.732 17.1282 6.70378C17.0637 6.68361 17.1685 6.52636 17.1081 6.36103C17.0758 6.2562 16.8742 6.05862 16.8943 6.00216C16.854 5.8812 16.9831 5.82878 17.0718 5.84894Z" fill="white"/>
<path id="Vector_13" fill-rule="evenodd" clip-rule="evenodd" d="M18.9316 9.69159C18.9598 9.32869 18.9074 9.11094 18.8993 8.90127C18.8913 8.69159 18.6574 7.08675 18.6171 6.92546C18.5566 6.62304 18.8389 6.88514 18.8066 6.70772C18.7098 6.48594 18.4719 6.16336 18.3953 5.97385C18.351 5.8932 18.3671 5.81659 18.2663 5.94965C18.1792 6.18946 18.1489 6.44616 18.1776 6.69965C18.4195 7.96175 18.6655 9.01014 18.6252 10.2118C18.7421 10.2118 18.8752 9.94965 18.9316 9.68756V9.69159ZM21.4477 6.35691C21.5848 6.42546 21.6614 6.80046 21.6493 6.9053C21.6211 7.10288 21.5485 7.30852 21.4961 7.28433C21.4437 7.26014 21.5082 6.99401 21.48 6.91336C21.4518 6.79643 21.2703 6.58675 21.2864 6.52223C21.2502 6.3932 21.3671 6.33675 21.4477 6.36094V6.35691ZM11.4598 9.01014C11.5889 9.06256 11.6614 9.33272 11.6493 9.41336C11.6252 9.55852 11.5566 9.71175 11.5082 9.69562C11.4558 9.67546 11.5163 9.48191 11.4921 9.42143C11.48 9.27223 11.3026 9.19562 11.3066 9.13514C11.2743 9.01417 11.3832 8.99401 11.4598 9.01417V9.01014Z" fill="white"/>
<path id="Vector_14" fill-rule="evenodd" clip-rule="evenodd" d="M14.569 9.42548C14.7303 9.43355 14.815 9.56661 14.6618 9.61903C14.5086 9.67145 14.3594 9.71177 14.3594 9.93355C14.4158 10.244 14.2787 10.1352 14.1981 10.0948C14.1053 10.0263 13.8392 9.865 13.8029 9.51016C13.7989 9.42951 13.8634 9.35693 13.9682 9.35693C14.1295 9.39726 14.3634 9.40532 14.565 9.42548H14.569Z" fill="#1B9D00"/>
<path id="Vector_15" fill-rule="evenodd" clip-rule="evenodd" d="M8.02483 5.76022C8.21435 5.81667 8.22645 6.0949 8.21032 6.17958C8.18612 6.32877 8.11758 6.48603 8.06919 6.46587C8.01677 6.44974 8.06919 6.24813 8.045 6.18361C8.01677 6.0949 7.85548 5.93361 7.87564 5.88522C7.83532 5.78845 7.94822 5.74409 8.02483 5.76425V5.76022ZM11.7708 7.07474C11.6256 7.15538 11.5692 7.38925 11.6579 7.52635C11.7426 7.64732 11.8756 7.60296 11.8958 7.60296C12.0369 7.61909 12.1216 7.3328 12.1216 7.3328C12.1216 7.3328 12.1256 7.25216 11.9603 7.40538C11.8877 7.41748 11.8797 7.39329 11.8595 7.35296C11.8423 7.27709 11.8508 7.19766 11.8837 7.12716C11.9079 7.05861 11.8514 7.02635 11.7708 7.07474ZM12.8595 5.65135C12.791 5.70377 12.6418 5.85296 12.6377 6.02635C12.6377 6.12313 12.6176 6.12313 12.6781 6.18764C12.7264 6.25216 12.7748 6.24813 12.8676 6.19974C12.8907 6.18478 12.9104 6.16526 12.9257 6.14238C12.9409 6.11949 12.9514 6.09373 12.9563 6.06667C12.9805 5.95377 12.8394 6.11909 12.8232 5.99409C12.791 5.88119 12.8797 5.8328 12.9644 5.7199C12.9644 5.64329 12.9644 5.59087 12.8635 5.65135H12.8595ZM13.7426 5.81264C13.7074 5.95408 13.6858 6.09855 13.6781 6.24409C13.6539 6.35296 13.791 6.39732 13.8555 6.25619C13.9482 6.00216 13.9482 5.89329 13.9563 5.78442C13.9281 5.62313 13.8152 5.62313 13.7426 5.80861V5.81264ZM19.2869 8.63119C19.3031 8.61103 20.0692 8.06667 20.0692 8.06667C20.1458 8.04248 20.1297 8.34893 20.0934 8.34893C19.8568 8.57828 19.5844 8.76759 19.2869 8.90942C19.2466 8.93361 19.2103 8.69974 19.2869 8.62716V8.63119ZM19.9805 8.62716C20.1135 8.69167 20.17 9.08684 20.1539 9.19167C20.1579 9.40135 20.0248 9.56667 19.9724 9.53845C19.916 9.51425 19.9764 9.28038 19.9523 9.19974C19.924 9.0828 19.8071 8.86506 19.8273 8.80458C19.7869 8.67151 19.8998 8.60296 19.9805 8.62716ZM15.4482 10.3207C15.5006 10.2401 15.6619 10.1312 15.666 10.1312C15.7426 10.0909 15.8152 10.1594 15.8111 10.1554C15.8232 10.232 15.7627 10.3005 15.7829 10.4014C15.799 10.4417 15.8111 10.486 15.8877 10.4699C16.0087 10.3772 16.1216 10.3691 16.2426 10.361C16.3353 10.3691 16.3353 10.5223 16.2789 10.5264C16.0531 10.5747 15.9563 10.6352 15.795 10.6957C15.7184 10.7401 15.6539 10.6836 15.6539 10.6796C15.6539 10.6755 15.6135 10.6352 15.6418 10.5344C15.6458 10.4538 15.6135 10.4134 15.549 10.4215C15.4966 10.4457 15.4523 10.4618 15.4281 10.4054C15.416 10.3651 15.416 10.3449 15.4482 10.3207ZM20.7829 10.5304C20.8152 10.5707 20.8394 10.611 20.7829 10.6796L20.6377 10.8005C20.6095 10.8489 20.5974 10.9134 20.674 10.9336C20.8152 10.9739 21.1458 10.7602 21.1458 10.7562C21.1982 10.7159 21.1821 10.6393 21.174 10.6393C21.1458 10.603 21.0732 10.6231 21.0289 10.6191C21.0047 10.6191 20.9321 10.607 20.9644 10.5425C20.9966 10.5022 21.0047 10.478 21.0248 10.4255C21.049 10.3772 21.0289 10.3449 20.9482 10.3167C20.8676 10.3046 20.8353 10.3126 20.7466 10.3167C20.6942 10.3288 20.6781 10.3489 20.666 10.4094C20.674 10.4981 20.7264 10.4941 20.7869 10.5304H20.7829Z" fill="white"/>
<path id="Vector_16" fill-rule="evenodd" clip-rule="evenodd" d="M15.4764 8.31274C15.4562 8.35306 15.3836 8.34903 15.3151 8.31274C15.2465 8.27645 15.2143 8.21193 15.2344 8.17564C15.2546 8.13935 15.3272 8.13935 15.3957 8.17564C15.4643 8.21193 15.4965 8.27645 15.4764 8.31274ZM11.9965 6.22403C11.9562 6.23613 11.9038 6.19984 11.8796 6.14338C11.8554 6.08693 11.8675 6.04258 11.9078 6.03048C11.9481 6.01838 12.0006 6.05871 12.0248 6.11113C12.049 6.16354 12.0369 6.21596 11.9965 6.22403Z" fill="#259F00"/>
<path id="Vector_17" fill-rule="evenodd" clip-rule="evenodd" d="M18.8799 15.5508C19.2428 15.5669 19.5896 15.5548 19.9525 15.575C20.0211 15.6274 19.9727 15.7685 19.9283 15.7564L19.6219 15.7484C19.6219 15.6314 19.3194 15.6516 19.3315 15.7524C19.1703 15.7726 19.0251 15.7484 18.8638 15.7403C18.8154 15.6798 18.8235 15.575 18.8799 15.5508Z" fill="#209000"/>
</g>
</svg>
