<svg width="88" height="87" viewBox="0 0 88 87" fill="none" xmlns="http://www.w3.org/2000/svg">
<g id="uiw:safety" clip-path="url(#clip0_521_12659)">
<path id="Vector" d="M12.5937 16.8127V49.1506C12.5937 66.7551 26.5354 81.0231 43.731 81.0231C60.9265 81.0231 74.8683 66.7551 74.8683 49.1506V16.8301L43.5439 6.2901L12.5937 16.8127ZM43.5352 0L80.706 12.5019V49.1506C80.706 70.0524 64.1499 87 43.731 87C23.3121 87 6.75598 70.0524 6.75598 49.1506V12.5019L43.5352 0ZM62.7579 28.2097C62.4739 27.9489 62.1404 27.748 61.7771 27.6188C61.4138 27.4897 61.0282 27.4351 60.6433 27.4583C60.2585 27.4814 59.8822 27.5818 59.537 27.7535C59.1918 27.9252 58.8847 28.1647 58.6341 28.4577L39.8595 50.0728L27.7317 36.6531C27.4753 36.3658 27.1637 36.1331 26.8155 35.9687C26.4673 35.8043 26.0896 35.7117 25.7048 35.6962C25.3201 35.6808 24.9362 35.743 24.5759 35.8789C24.2157 36.0149 23.8865 36.222 23.6079 36.4878C23.0375 37.0329 22.7018 37.7787 22.6717 38.5671C22.6417 39.3555 22.9197 40.1247 23.4469 40.7117L37.7584 56.5456C38.031 56.8521 38.3661 57.0966 38.7411 57.2626C39.1161 57.4287 39.5223 57.5125 39.9325 57.5084C40.3426 57.5043 40.747 57.4123 41.1186 57.2388C41.4902 57.0652 41.8203 56.814 42.0867 56.5022L62.9971 32.4292C63.5132 31.8326 63.7768 31.0586 63.7321 30.271C63.6875 29.4835 63.3381 28.7442 62.7579 28.2097Z" fill="black"/>
</g>
<defs>
<clipPath id="clip0_521_12659">
<rect width="87" height="87" fill="white" transform="translate(0.230957)"/>
</clipPath>
</defs>
</svg>
